<svg xmlns="http://www.w3.org/2000/svg" xmlns:xlink="http://www.w3.org/1999/xlink" width="103" height="103" viewBox="0 0 103 103">
  <defs>
    <filter id="Elipse_7712" x="0" y="0" width="103" height="103" filterUnits="userSpaceOnUse">
      <feOffset dy="3" input="SourceAlpha"/>
      <feGaussianBlur stdDeviation="3" result="blur"/>
      <feFlood flood-opacity="0.161"/>
      <feComposite operator="in" in2="blur"/>
      <feComposite in="SourceGraphic"/>
    </filter>
    <clipPath id="clip-path">
      <circle id="Elipse_7722" data-name="Elipse 7722" cx="35" cy="35" r="35" transform="translate(0 0.166)" fill="#b3f1ff"/>
    </clipPath>
  </defs>
  <g id="Grupo_1013332" data-name="Grupo 1013332" transform="translate(-896 -2347)">
    <g transform="matrix(1, 0, 0, 1, 896, 2347)" filter="url(#Elipse_7712)">
      <circle id="Elipse_7712-2" data-name="Elipse 7712" cx="42.5" cy="42.5" r="42.5" transform="translate(9 6)" fill="#ffd3c3"/>
    </g>
    <g id="Enmascarar_grupo_868572" data-name="Enmascarar grupo 868572" transform="translate(913 2359.834)" clip-path="url(#clip-path)">
      <circle id="Elipse_7721" data-name="Elipse 7721" cx="35" cy="35" r="35" transform="translate(0 0.166)" fill="#b3f1ff"/>
      <g id="sembrando-semillas" transform="translate(-3.784 19.475)">
        <path id="Trazado_663188" data-name="Trazado 663188" d="M73.078,156.646a1.106,1.106,0,1,1,2.212,0v11.545a1.106,1.106,0,0,1-2.212,0Z" transform="translate(-62.294 -145.268)" fill="#66b394"/>
        <path id="Trazado_663189" data-name="Trazado 663189" d="M423.927,156.646a1.106,1.106,0,1,1,2.212,0v11.545a1.106,1.106,0,0,1-2.212,0Z" transform="translate(-361.366 -145.268)" fill="#66b394"/>
        <g id="Grupo_1012841" data-name="Grupo 1012841" transform="translate(0)">
          <path id="Trazado_663190" data-name="Trazado 663190" d="M11.889,116.441a7.36,7.36,0,0,1-7.966.13,7.583,7.583,0,0,1-3.885-5.791c-.1-1.192-.059-1.267,1.024-1.773a7.6,7.6,0,0,1,6.958.468A7.362,7.362,0,0,1,11.889,116.441Z" transform="translate(0 -105.063)" fill="#b3e59f" fill-rule="evenodd"/>
          <path id="Trazado_663191" data-name="Trazado 663191" d="M362.752,116.441a7.367,7.367,0,0,1-7.97.13,7.593,7.593,0,0,1-3.885-5.791c-.1-1.192-.059-1.267,1.029-1.773a7.587,7.587,0,0,1,6.954.468A7.373,7.373,0,0,1,362.752,116.441Z" transform="translate(-299.083 -105.063)" fill="#b3e59f" fill-rule="evenodd"/>
          <path id="Trazado_663192" data-name="Trazado 663192" d="M15.85,121.381a7.36,7.36,0,0,1-7.966.13,7.98,7.98,0,0,1-3.236-3.441,7.539,7.539,0,0,0,6.465.238c1.141-.523,1.179-.627,1.054-1.882a6.777,6.777,0,0,0-.64-2.258c.151.08.305.159.456.247A7.362,7.362,0,0,1,15.85,121.381Z" transform="translate(-3.962 -110.003)" fill="#95d6a4" fill-rule="evenodd"/>
          <path id="Trazado_663193" data-name="Trazado 663193" d="M366.728,121.381a7.367,7.367,0,0,1-7.97.13,7.97,7.97,0,0,1-3.232-3.441,7.529,7.529,0,0,0,6.461.238c1.146-.523,1.183-.627,1.058-1.882a6.887,6.887,0,0,0-.644-2.258c.155.08.305.159.456.247A7.373,7.373,0,0,1,366.728,121.381Z" transform="translate(-303.059 -110.003)" fill="#95d6a4" fill-rule="evenodd"/>
          <path id="Trazado_663194" data-name="Trazado 663194" d="M80.361,116.441a7.367,7.367,0,0,0,7.97.13,7.6,7.6,0,0,0,3.885-5.779c.1-1.2.063-1.275-1.024-1.786a7.6,7.6,0,0,0-6.958.468A7.373,7.373,0,0,0,80.361,116.441Z" transform="translate(-68.472 -105.063)" fill="#95d6a4" fill-rule="evenodd"/>
          <path id="Trazado_663195" data-name="Trazado 663195" d="M431.233,116.441a7.367,7.367,0,0,0,7.97.13,7.6,7.6,0,0,0,3.88-5.779c.1-1.2.067-1.275-1.02-1.786a7.6,7.6,0,0,0-6.958.468A7.358,7.358,0,0,0,431.233,116.441Z" transform="translate(-367.564 -105.063)" fill="#95d6a4" fill-rule="evenodd"/>
          <path id="Trazado_663196" data-name="Trazado 663196" d="M80.361,116.454a7.367,7.367,0,0,0,7.97.13,7.6,7.6,0,0,0,3.885-5.779c.1-1.2.063-1.275-1.024-1.786a6.9,6.9,0,0,0-2.906-.631,7.807,7.807,0,0,1-3.642,4.508,8.05,8.05,0,0,1-4.052,1.1A6.365,6.365,0,0,0,80.361,116.454Z" transform="translate(-68.473 -105.076)" fill="#78c2a4" fill-rule="evenodd"/>
          <path id="Trazado_663197" data-name="Trazado 663197" d="M431.235,116.454a7.367,7.367,0,0,0,7.97.13,7.6,7.6,0,0,0,3.88-5.779c.1-1.2.067-1.275-1.02-1.786a6.911,6.911,0,0,0-2.906-.631,7.807,7.807,0,0,1-3.642,4.508,8.062,8.062,0,0,1-4.052,1.1A6.285,6.285,0,0,0,431.235,116.454Z" transform="translate(-367.566 -105.076)" fill="#78c2a4" fill-rule="evenodd"/>
          <path id="Trazado_663198" data-name="Trazado 663198" d="M75.641,250.443l-12.2,1.033-14.962-1.033a13.838,13.838,0,0,0,3.358-7.983c.071-.907.493-1.179,1.229-1.179H74.462a1.052,1.052,0,0,1,1.179,1.179v7.983Zm-48.368,0-14.209.958-12.95-.958V242.46a1.078,1.078,0,0,1,1.179-1.179H22.681c.74,0,1.146.222,1.229,1.183a14.066,14.066,0,0,0,3.362,7.978Z" transform="translate(-0.096 -218.357)" fill="#f5bc98" fill-rule="evenodd"/>
          <path id="Trazado_663199" data-name="Trazado 663199" d="M75.642,320.29V303.363H48.482a14.017,14.017,0,0,1-21.209,0H.114V320.29a1.183,1.183,0,0,0,1.179,1.179H74.463a1.183,1.183,0,0,0,1.179-1.179Z" transform="translate(-0.097 -271.278)" fill="#d68756" fill-rule="evenodd"/>
          <path id="Trazado_663200" data-name="Trazado 663200" d="M69,317.781H.114v2.509a1.183,1.183,0,0,0,1.179,1.179H74.463a1.183,1.183,0,0,0,1.179-1.179V303.363H71.954v11.466A2.963,2.963,0,0,1,69,317.781Z" transform="translate(-0.097 -271.278)" fill="#c47443" fill-rule="evenodd"/>
          <path id="Trazado_663201" data-name="Trazado 663201" d="M235.575,264.4c0-1.514-1.915-2.743-4.274-2.743s-4.278,1.229-4.278,2.743,1.915,2.747,4.278,2.747,4.274-1.229,4.274-2.747Z" transform="translate(-193.521 -235.724)" fill="#0c5e7f" fill-rule="evenodd"/>
          <path id="Trazado_663202" data-name="Trazado 663202" d="M208.2,163.572c1.313-.757,1.422-3.027.238-5.072s-3.2-3.09-4.512-2.329-1.422,3.027-.238,5.072S206.89,164.333,208.2,163.572Z" transform="translate(-172.931 -145.595)" fill="#0c5e7f" fill-rule="evenodd"/>
          <path id="Trazado_663203" data-name="Trazado 663203" d="M262.892,93.6c1.313.757,3.333-.284,4.512-2.329s1.075-4.32-.238-5.076-3.333.284-4.516,2.329S261.579,92.841,262.892,93.6Z" transform="translate(-223.192 -85.945)" fill="#0c5e7f" fill-rule="evenodd"/>
          <path id="Trazado_663204" data-name="Trazado 663204" d="M486.916,241.281v9.162H490.6V242.46a1.052,1.052,0,0,0-1.179-1.179h-2.509Z" transform="translate(-415.06 -218.357)" fill="#e59b6c" fill-rule="evenodd"/>
        </g>
      </g>
    </g>
  </g>
</svg>
