<svg xmlns="http://www.w3.org/2000/svg" xmlns:xlink="http://www.w3.org/1999/xlink" width="103" height="103" viewBox="0 0 103 103">
  <defs>
    <filter id="Elipse_4909" x="0" y="0" width="103" height="103" filterUnits="userSpaceOnUse">
      <feOffset dy="3" input="SourceAlpha"/>
      <feGaussianBlur stdDeviation="3" result="blur"/>
      <feFlood flood-opacity="0.161"/>
      <feComposite operator="in" in2="blur"/>
      <feComposite in="SourceGraphic"/>
    </filter>
    <clipPath id="clip-path">
      <circle id="Elipse_7719" data-name="Elipse 7719" cx="34.5" cy="34.5" r="34.5" fill="#b3f1ff"/>
    </clipPath>
  </defs>
  <g id="Grupo_1013331" data-name="Grupo 1013331" transform="translate(-381 -2335)">
    <g transform="matrix(1, 0, 0, 1, 381, 2335)" filter="url(#Elipse_4909)">
      <circle id="Elipse_4909-2" data-name="Elipse 4909" cx="42.5" cy="42.5" r="42.5" transform="translate(9 6)" fill="#ffd3c3"/>
    </g>
    <g id="Enmascarar_grupo_868571" data-name="Enmascarar grupo 868571" transform="translate(398 2349)" clip-path="url(#clip-path)">
      <circle id="Elipse_7718" data-name="Elipse 7718" cx="34.5" cy="34.5" r="34.5" fill="#b3f1ff"/>
      <g id="cultivos" transform="translate(-0.531 14.388)">
        <g id="Grupo_1012790" data-name="Grupo 1012790" transform="translate(45.808 0)">
          <path id="Trazado_663126" data-name="Trazado 663126" d="M330.34,14.1a13.34,13.34,0,0,1-9.586,0,.459.459,0,0,1-.246-.634l4.945-9.889a.105.105,0,0,1,.188,0l4.945,9.889A.459.459,0,0,1,330.34,14.1Z" transform="translate(-320.46 -3.523)" fill="#66bb6a"/>
        </g>
        <g id="Grupo_1012791" data-name="Grupo 1012791" transform="translate(43.939 16.195)">
          <path id="Trazado_663127" data-name="Trazado 663127" d="M307.449,120.868l2.027-4.054a15.777,15.777,0,0,0,9.726,0l2.027,4.054a.628.628,0,0,1-.336.867h0a18.241,18.241,0,0,1-13.108,0A.628.628,0,0,1,307.449,120.868Z" transform="translate(-307.382 -116.814)" fill="#66bb6a"/>
        </g>
        <g id="Grupo_1012792" data-name="Grupo 1012792" transform="translate(44.878 10.908)">
          <path id="Trazado_663128" data-name="Trazado 663128" d="M314.012,84.086l2.126-4.252a13.34,13.34,0,0,0,7.667,0l2.126,4.252a.543.543,0,0,1-.291.75,15.858,15.858,0,0,1-11.338,0h0A.543.543,0,0,1,314.012,84.086Z" transform="translate(-313.954 -79.834)" fill="#66bb6a"/>
        </g>
        <g id="Grupo_1012793" data-name="Grupo 1012793" transform="translate(60.095 0)">
          <path id="Trazado_663129" data-name="Trazado 663129" d="M430.286,14.1a13.34,13.34,0,0,1-9.586,0,.459.459,0,0,1-.246-.634L425.4,3.581a.105.105,0,0,1,.188,0l4.945,9.889A.459.459,0,0,1,430.286,14.1Z" transform="translate(-420.406 -3.523)" fill="#66bb6a"/>
        </g>
        <g id="Grupo_1012794" data-name="Grupo 1012794" transform="translate(58.225 16.195)">
          <path id="Trazado_663130" data-name="Trazado 663130" d="M407.4,120.868l2.027-4.054a15.777,15.777,0,0,0,9.726,0l2.027,4.054a.628.628,0,0,1-.336.867h0a18.241,18.241,0,0,1-13.108,0A.628.628,0,0,1,407.4,120.868Z" transform="translate(-407.328 -116.814)" fill="#66bb6a"/>
        </g>
        <g id="Grupo_1012795" data-name="Grupo 1012795" transform="translate(59.165 10.908)">
          <path id="Trazado_663131" data-name="Trazado 663131" d="M413.958,84.086l2.126-4.252a13.34,13.34,0,0,0,7.667,0l2.126,4.252a.543.543,0,0,1-.291.75,15.858,15.858,0,0,1-11.338,0h0A.543.543,0,0,1,413.958,84.086Z" transform="translate(-413.9 -79.834)" fill="#66bb6a"/>
        </g>
        <g id="Grupo_1012796" data-name="Grupo 1012796" transform="translate(0 32.847)">
          <path id="Trazado_663132" data-name="Trazado 663132" d="M71.857,272.65H1.339A1.339,1.339,0,0,1,0,271.312V234.636a1.328,1.328,0,0,1,1.328-1.328h70.54a1.328,1.328,0,0,1,1.328,1.328v36.676A1.339,1.339,0,0,1,71.857,272.65Z" transform="translate(0 -233.308)" fill="#8d6e63"/>
        </g>
        <path id="Trazado_663133" data-name="Trazado 663133" d="M456.835,233.307h-7.661l8.989,14.629v-13.3A1.328,1.328,0,0,0,456.835,233.307Z" transform="translate(-384.967 -200.46)" fill="#8d6e63"/>
        <path id="Trazado_663134" data-name="Trazado 663134" d="M485.628,233.307h-2.859a1.328,1.328,0,0,1,1.328,1.328v8.648l2.859,4.652v-13.3A1.328,1.328,0,0,0,485.628,233.307Z" transform="translate(-413.76 -200.46)" fill="#6d4c41"/>
        <g id="Grupo_1012797" data-name="Grupo 1012797" transform="translate(36.694 32.847)">
          <path id="Trazado_663135" data-name="Trazado 663135" d="M269.625,272.65H256.7V233.308h6.878Z" transform="translate(-256.703 -233.308)" fill="#8d6e63"/>
        </g>
        <g id="Grupo_1012798" data-name="Grupo 1012798" transform="translate(23.772 32.847)">
          <path id="Trazado_663136" data-name="Trazado 663136" d="M179.227,272.65H166.3l6.044-39.342h6.878Z" transform="translate(-166.305 -233.308)" fill="#8d6e63"/>
        </g>
        <g id="Grupo_1012799" data-name="Grupo 1012799" transform="translate(10.85 32.847)">
          <path id="Trazado_663137" data-name="Trazado 663137" d="M88.828,272.65H75.906l12.088-39.342h6.878Z" transform="translate(-75.906 -233.308)" fill="#8d6e63"/>
        </g>
        <g id="Grupo_1012800" data-name="Grupo 1012800" transform="translate(0 32.847)">
          <path id="Trazado_663138" data-name="Trazado 663138" d="M16.06,233.307,0,268.154v3.156a1.339,1.339,0,0,0,1.339,1.339H10.85l12.088-39.342Z" transform="translate(0 -233.307)" fill="#8d6e63"/>
        </g>
        <g id="Grupo_1012801" data-name="Grupo 1012801" transform="translate(0 32.847)">
          <path id="Trazado_663139" data-name="Trazado 663139" d="M0,268.154l16.06-34.847H9.182L0,248.249Z" transform="translate(0 -233.307)" fill="#8d6e63"/>
        </g>
        <g id="Grupo_1012802" data-name="Grupo 1012802" transform="translate(43.572 32.847)">
          <path id="Trazado_663140" data-name="Trazado 663140" d="M323.787,272.65H310.865l-6.044-39.342H311.7Z" transform="translate(-304.821 -233.308)" fill="#8d6e63"/>
        </g>
        <g id="Grupo_1012803" data-name="Grupo 1012803" transform="translate(57.329 32.847)">
          <path id="Trazado_663141" data-name="Trazado 663141" d="M416.922,247.936l-8.989-14.629h-6.878l15.867,34.429v-19.8Z" transform="translate(-401.055 -233.307)" fill="#8d6e63"/>
        </g>
        <path id="Trazado_663142" data-name="Trazado 663142" d="M432.033,233.307h-2.859l7.039,11.455a13.176,13.176,0,0,1,1.95,6.9v9.872l2.859,6.2v-19.8Z" transform="translate(-367.826 -200.46)" fill="#6d4c41"/>
        <g id="Grupo_1012804" data-name="Grupo 1012804" transform="translate(36.694 32.847)">
          <path id="Trazado_663143" data-name="Trazado 663143" d="M263.582,233.307h-3.965l4.979,32.414a3.459,3.459,0,0,1-3.419,3.984H256.7v2.945h12.922Z" transform="translate(-256.704 -233.307)" fill="#6d4c41"/>
        </g>
        <g id="Grupo_1012805" data-name="Grupo 1012805" transform="translate(23.772 32.847)">
          <path id="Trazado_663144" data-name="Trazado 663144" d="M174.81,233.307v32.939a3.459,3.459,0,0,1-3.459,3.459h-4.594l-.452,2.945h12.922V233.307Z" transform="translate(-166.305 -233.307)" fill="#6d4c41"/>
        </g>
        <g id="Grupo_1012806" data-name="Grupo 1012806" transform="translate(10.85 32.847)">
          <path id="Trazado_663145" data-name="Trazado 663145" d="M90,233.307l-5.141,33.464a3.459,3.459,0,0,1-3.419,2.934H76.811l-.9,2.945H88.828l6.044-39.342Z" transform="translate(-75.906 -233.307)" fill="#6d4c41"/>
        </g>
        <g id="Grupo_1012807" data-name="Grupo 1012807" transform="translate(0 32.847)">
          <path id="Trazado_663146" data-name="Trazado 663146" d="M17.616,233.307,7.184,267.262A3.459,3.459,0,0,1,3.878,269.7H0v1.606a1.339,1.339,0,0,0,1.339,1.339H10.85l12.088-39.342H17.616Z" transform="translate(0 -233.307)" fill="#6d4c41"/>
        </g>
        <g id="Grupo_1012808" data-name="Grupo 1012808" transform="translate(0 32.847)">
          <path id="Trazado_663147" data-name="Trazado 663147" d="M11.758,233.307,0,258.82v9.334l16.06-34.847Z" transform="translate(0 -233.307)" fill="#6d4c41"/>
        </g>
        <g id="Grupo_1012809" data-name="Grupo 1012809" transform="translate(46.938 32.847)">
          <path id="Trazado_663148" data-name="Trazado 663148" d="M331.88,233.307h-3.512l9.808,31.923a3.459,3.459,0,0,1-3.306,4.475h-4.276l.452,2.945h12.922Z" transform="translate(-328.368 -233.307)" fill="#6d4c41"/>
        </g>
        <g id="Grupo_1012810" data-name="Grupo 1012810" transform="translate(54.269 32.847)">
          <path id="Trazado_663149" data-name="Trazado 663149" d="M382.71,233.307h-3.06l13.734,29.8a4.634,4.634,0,0,1-3.913,6.591q-.112.005-.226.005h-2.232l.9,2.945h9.319a1.339,1.339,0,0,0,1.339-1.339v-3.575Z" transform="translate(-379.65 -233.307)" fill="#6d4c41"/>
        </g>
        <g id="Grupo_1012811" data-name="Grupo 1012811" transform="translate(31.521 0)">
          <path id="Trazado_663150" data-name="Trazado 663150" d="M220.808,14.1a13.34,13.34,0,0,0,9.586,0,.459.459,0,0,0,.246-.634L225.695,3.58a.105.105,0,0,0-.188,0l-4.945,9.889A.459.459,0,0,0,220.808,14.1Z" transform="translate(-220.514 -3.521)" fill="#66bb6a"/>
        </g>
        <g id="Grupo_1012812" data-name="Grupo 1012812" transform="translate(29.652 16.195)">
          <path id="Trazado_663151" data-name="Trazado 663151" d="M221.282,120.868l-2.027-4.054a15.777,15.777,0,0,1-9.726,0l-2.027,4.054a.628.628,0,0,0,.336.867,18.333,18.333,0,0,0,13.108,0A.628.628,0,0,0,221.282,120.868Z" transform="translate(-207.435 -116.814)" fill="#66bb6a"/>
        </g>
        <g id="Grupo_1012813" data-name="Grupo 1012813" transform="translate(30.591 10.908)">
          <path id="Trazado_663152" data-name="Trazado 663152" d="M225.983,84.086l-2.126-4.252a13.34,13.34,0,0,1-7.667,0l-2.126,4.252a.543.543,0,0,0,.291.75,15.858,15.858,0,0,0,11.338,0h0A.543.543,0,0,0,225.983,84.086Z" transform="translate(-214.006 -79.834)" fill="#66bb6a"/>
        </g>
        <g id="Grupo_1012814" data-name="Grupo 1012814" transform="translate(34.302 22.186)">
          <path id="Trazado_663153" data-name="Trazado 663153" d="M244.583,169.389V158.729a18.24,18.24,0,0,1-4.612,0v10.661Z" transform="translate(-239.971 -158.729)" fill="#ffa726"/>
        </g>
        <g id="Grupo_1012815" data-name="Grupo 1012815" transform="translate(17.234 0)">
          <path id="Trazado_663154" data-name="Trazado 663154" d="M120.862,14.1a13.34,13.34,0,0,0,9.586,0,.459.459,0,0,0,.246-.634L125.749,3.58a.105.105,0,0,0-.188,0l-4.945,9.889A.459.459,0,0,0,120.862,14.1Z" transform="translate(-120.568 -3.521)" fill="#66bb6a"/>
        </g>
        <g id="Grupo_1012816" data-name="Grupo 1012816" transform="translate(15.365 16.195)">
          <path id="Trazado_663155" data-name="Trazado 663155" d="M121.336,120.868l-2.027-4.054a15.777,15.777,0,0,1-9.726,0l-2.027,4.054a.628.628,0,0,0,.336.867,18.333,18.333,0,0,0,13.108,0A.628.628,0,0,0,121.336,120.868Z" transform="translate(-107.489 -116.814)" fill="#66bb6a"/>
        </g>
        <g id="Grupo_1012817" data-name="Grupo 1012817" transform="translate(16.304 10.908)">
          <path id="Trazado_663156" data-name="Trazado 663156" d="M126.037,84.086l-2.126-4.252a13.34,13.34,0,0,1-7.667,0l-2.126,4.252a.543.543,0,0,0,.291.75,15.858,15.858,0,0,0,11.338,0h0A.543.543,0,0,0,126.037,84.086Z" transform="translate(-114.06 -79.834)" fill="#66bb6a"/>
        </g>
        <g id="Grupo_1012818" data-name="Grupo 1012818" transform="translate(20.016 22.186)">
          <path id="Trazado_663157" data-name="Trazado 663157" d="M144.637,169.389V158.729a18.24,18.24,0,0,1-4.612,0v10.661Z" transform="translate(-140.025 -158.729)" fill="#ffa726"/>
        </g>
        <g id="Grupo_1012819" data-name="Grupo 1012819" transform="translate(2.948 0)">
          <path id="Trazado_663158" data-name="Trazado 663158" d="M20.916,14.1a13.34,13.34,0,0,0,9.586,0,.459.459,0,0,0,.246-.634L25.8,3.58a.105.105,0,0,0-.188,0L20.67,13.469A.459.459,0,0,0,20.916,14.1Z" transform="translate(-20.622 -3.521)" fill="#66bb6a"/>
        </g>
        <g id="Grupo_1012820" data-name="Grupo 1012820" transform="translate(1.078 16.195)">
          <path id="Trazado_663159" data-name="Trazado 663159" d="M21.39,120.868l-2.027-4.054a15.777,15.777,0,0,1-9.726,0L7.61,120.868a.628.628,0,0,0,.336.867,18.333,18.333,0,0,0,13.108,0A.628.628,0,0,0,21.39,120.868Z" transform="translate(-7.543 -116.814)" fill="#66bb6a"/>
        </g>
        <g id="Grupo_1012821" data-name="Grupo 1012821" transform="translate(2.018 10.908)">
          <path id="Trazado_663160" data-name="Trazado 663160" d="M26.092,84.085l-2.126-4.252a13.34,13.34,0,0,1-7.667,0l-2.126,4.252a.543.543,0,0,0,.291.75,15.858,15.858,0,0,0,11.338,0h0A.543.543,0,0,0,26.092,84.085Z" transform="translate(-14.115 -79.833)" fill="#66bb6a"/>
        </g>
        <g id="Grupo_1012822" data-name="Grupo 1012822" transform="translate(2.948 0)">
          <path id="Trazado_663161" data-name="Trazado 663161" d="M30.748,13.469,25.8,3.58a.105.105,0,0,0-.188,0l-.978,1.956,3.252,6.5a.459.459,0,0,1-.246.634,13.089,13.089,0,0,1-6.932.715l-.04.081a.459.459,0,0,0,.246.634h0a13.339,13.339,0,0,0,9.586,0h0A.459.459,0,0,0,30.748,13.469Z" transform="translate(-20.622 -3.521)" fill="#388e3c"/>
        </g>
        <g id="Grupo_1012823" data-name="Grupo 1012823" transform="translate(1.082 16.195)">
          <path id="Trazado_663162" data-name="Trazado 663162" d="M21.411,120.868l-2.027-4.054a15.767,15.767,0,0,1-1.9.486l1.069,2.139a.628.628,0,0,1-.336.867,18.241,18.241,0,0,1-10.642.754.625.625,0,0,0,.393.676,18.241,18.241,0,0,0,13.108,0A.628.628,0,0,0,21.411,120.868Z" transform="translate(-7.567 -116.814)" fill="#388e3c"/>
        </g>
        <g id="Grupo_1012824" data-name="Grupo 1012824" transform="translate(2.021 10.908)">
          <path id="Trazado_663163" data-name="Trazado 663163" d="M26.109,84.085l-2.126-4.252a13.326,13.326,0,0,1-1.931.426l1.2,2.4a.543.543,0,0,1-.291.75,15.608,15.608,0,0,1-8.793.741.541.541,0,0,0,.313.689h0a15.667,15.667,0,0,0,11.338,0A.543.543,0,0,0,26.109,84.085Z" transform="translate(-14.136 -79.833)" fill="#388e3c"/>
        </g>
        <g id="Grupo_1012825" data-name="Grupo 1012825" transform="translate(17.233 0)">
          <path id="Trazado_663164" data-name="Trazado 663164" d="M130.682,13.469,125.738,3.58a.105.105,0,0,0-.188,0l-.978,1.956,3.252,6.5a.459.459,0,0,1-.246.634,13.089,13.089,0,0,1-6.932.715l-.04.081a.459.459,0,0,0,.246.634h0a13.339,13.339,0,0,0,9.586,0h0A.459.459,0,0,0,130.682,13.469Z" transform="translate(-120.557 -3.521)" fill="#388e3c"/>
        </g>
        <g id="Grupo_1012826" data-name="Grupo 1012826" transform="translate(15.367 16.195)">
          <path id="Trazado_663165" data-name="Trazado 663165" d="M121.346,120.868l-2.027-4.054a15.769,15.769,0,0,1-1.9.486l1.069,2.139a.628.628,0,0,1-.336.867,18.241,18.241,0,0,1-10.642.754.625.625,0,0,0,.393.676,18.241,18.241,0,0,0,13.108,0A.628.628,0,0,0,121.346,120.868Z" transform="translate(-107.502 -116.814)" fill="#388e3c"/>
        </g>
        <g id="Grupo_1012827" data-name="Grupo 1012827" transform="translate(16.306 10.908)">
          <path id="Trazado_663166" data-name="Trazado 663166" d="M126.044,84.086l-2.126-4.252a13.325,13.325,0,0,1-1.931.426l1.2,2.4a.543.543,0,0,1-.291.75,15.608,15.608,0,0,1-8.793.741.541.541,0,0,0,.313.689h0a15.667,15.667,0,0,0,11.338,0A.543.543,0,0,0,126.044,84.086Z" transform="translate(-114.07 -79.834)" fill="#388e3c"/>
        </g>
        <g id="Grupo_1012828" data-name="Grupo 1012828" transform="translate(31.518 0)">
          <path id="Trazado_663167" data-name="Trazado 663167" d="M230.617,13.469,225.673,3.58a.105.105,0,0,0-.188,0l-.978,1.956,3.252,6.5a.459.459,0,0,1-.246.634,13.089,13.089,0,0,1-6.932.715l-.04.081a.459.459,0,0,0,.246.634h0a13.339,13.339,0,0,0,9.586,0h0A.459.459,0,0,0,230.617,13.469Z" transform="translate(-220.492 -3.521)" fill="#388e3c"/>
        </g>
        <g id="Grupo_1012829" data-name="Grupo 1012829" transform="translate(29.652 16.195)">
          <path id="Trazado_663168" data-name="Trazado 663168" d="M221.28,120.868l-2.027-4.054a15.767,15.767,0,0,1-1.9.486l1.069,2.139a.628.628,0,0,1-.336.867,18.241,18.241,0,0,1-10.642.754.625.625,0,0,0,.393.676,18.241,18.241,0,0,0,13.108,0A.628.628,0,0,0,221.28,120.868Z" transform="translate(-207.436 -116.814)" fill="#388e3c"/>
        </g>
        <g id="Grupo_1012830" data-name="Grupo 1012830" transform="translate(30.591 10.908)">
          <path id="Trazado_663169" data-name="Trazado 663169" d="M225.978,84.086l-2.126-4.252a13.327,13.327,0,0,1-1.931.426l1.2,2.4a.543.543,0,0,1-.291.75,15.608,15.608,0,0,1-8.792.741.541.541,0,0,0,.313.689h0a15.667,15.667,0,0,0,11.338,0A.543.543,0,0,0,225.978,84.086Z" transform="translate(-214.004 -79.834)" fill="#388e3c"/>
        </g>
        <g id="Grupo_1012831" data-name="Grupo 1012831" transform="translate(45.803 0)">
          <path id="Trazado_663170" data-name="Trazado 663170" d="M330.551,13.469,325.607,3.58a.105.105,0,0,0-.188,0l-.978,1.956,3.252,6.5a.459.459,0,0,1-.246.634,13.089,13.089,0,0,1-6.932.715l-.04.081a.459.459,0,0,0,.246.634h0a13.339,13.339,0,0,0,9.586,0h0A.459.459,0,0,0,330.551,13.469Z" transform="translate(-320.426 -3.521)" fill="#388e3c"/>
        </g>
        <g id="Grupo_1012832" data-name="Grupo 1012832" transform="translate(43.937 16.195)">
          <path id="Trazado_663171" data-name="Trazado 663171" d="M321.214,120.868l-2.027-4.054a15.768,15.768,0,0,1-1.9.486l1.069,2.139a.628.628,0,0,1-.336.867,18.241,18.241,0,0,1-10.642.754.625.625,0,0,0,.393.676,18.241,18.241,0,0,0,13.108,0A.628.628,0,0,0,321.214,120.868Z" transform="translate(-307.37 -116.814)" fill="#388e3c"/>
        </g>
        <g id="Grupo_1012833" data-name="Grupo 1012833" transform="translate(44.876 10.908)">
          <path id="Trazado_663172" data-name="Trazado 663172" d="M325.912,84.086l-2.126-4.252a13.327,13.327,0,0,1-1.931.426l1.2,2.4a.543.543,0,0,1-.291.75,15.608,15.608,0,0,1-8.793.741.541.541,0,0,0,.313.689h0a15.667,15.667,0,0,0,11.338,0A.543.543,0,0,0,325.912,84.086Z" transform="translate(-313.937 -79.834)" fill="#388e3c"/>
        </g>
        <g id="Grupo_1012834" data-name="Grupo 1012834" transform="translate(60.088 0)">
          <path id="Trazado_663173" data-name="Trazado 663173" d="M430.485,13.469,425.541,3.58a.105.105,0,0,0-.188,0l-.978,1.956,3.252,6.5a.459.459,0,0,1-.246.634,13.089,13.089,0,0,1-6.932.715l-.04.081a.459.459,0,0,0,.246.634h0a13.339,13.339,0,0,0,9.586,0h0A.459.459,0,0,0,430.485,13.469Z" transform="translate(-420.36 -3.521)" fill="#388e3c"/>
        </g>
        <g id="Grupo_1012835" data-name="Grupo 1012835" transform="translate(58.222 16.195)">
          <path id="Trazado_663174" data-name="Trazado 663174" d="M421.148,120.868l-2.027-4.054a15.768,15.768,0,0,1-1.9.486l1.069,2.139a.628.628,0,0,1-.336.867,18.241,18.241,0,0,1-10.642.754.626.626,0,0,0,.393.676,18.241,18.241,0,0,0,13.108,0A.628.628,0,0,0,421.148,120.868Z" transform="translate(-407.304 -116.814)" fill="#388e3c"/>
        </g>
        <g id="Grupo_1012836" data-name="Grupo 1012836" transform="translate(59.161 10.908)">
          <path id="Trazado_663175" data-name="Trazado 663175" d="M425.846,84.086l-2.126-4.252a13.325,13.325,0,0,1-1.931.426l1.2,2.4a.543.543,0,0,1-.291.75,15.608,15.608,0,0,1-8.792.741.541.541,0,0,0,.313.689h0a15.667,15.667,0,0,0,11.338,0A.543.543,0,0,0,425.846,84.086Z" transform="translate(-413.871 -79.834)" fill="#388e3c"/>
        </g>
        <g id="Grupo_1012837" data-name="Grupo 1012837" transform="translate(5.729 22.186)">
          <path id="Trazado_663176" data-name="Trazado 663176" d="M44.691,169.389V158.729a18.24,18.24,0,0,1-4.612,0v10.661Z" transform="translate(-40.079 -158.729)" fill="#ffa726"/>
        </g>
        <g id="Grupo_1012838" data-name="Grupo 1012838" transform="translate(48.589 22.186)">
          <path id="Trazado_663177" data-name="Trazado 663177" d="M339.917,169.389V158.729a18.24,18.24,0,0,0,4.612,0v10.661Z" transform="translate(-339.917 -158.729)" fill="#ffa726"/>
        </g>
        <g id="Grupo_1012839" data-name="Grupo 1012839" transform="translate(62.876 22.186)">
          <path id="Trazado_663178" data-name="Trazado 663178" d="M439.863,169.389V158.729a18.24,18.24,0,0,0,4.612,0v10.661Z" transform="translate(-439.863 -158.729)" fill="#ffa726"/>
        </g>
        <g id="Grupo_1012840" data-name="Grupo 1012840" transform="translate(5.729 22.186)">
          <path id="Trazado_663179" data-name="Trazado 663179" d="M141.778,158.868v7.7a1.4,1.4,0,0,1-1.4,1.4h-.355v1.429h4.612V158.73A18.263,18.263,0,0,1,141.778,158.868Z" transform="translate(-125.738 -158.73)" fill="#f57c00"/>
          <path id="Trazado_663180" data-name="Trazado 663180" d="M41.832,158.868v7.7a1.4,1.4,0,0,1-1.4,1.4h-.355v1.429h4.612V158.73A18.263,18.263,0,0,1,41.832,158.868Z" transform="translate(-40.079 -158.73)" fill="#f57c00"/>
          <path id="Trazado_663181" data-name="Trazado 663181" d="M241.724,158.868v7.7a1.4,1.4,0,0,1-1.4,1.4h-.355v1.429h4.612V158.73A18.263,18.263,0,0,1,241.724,158.868Z" transform="translate(-211.398 -158.73)" fill="#f57c00"/>
          <path id="Trazado_663182" data-name="Trazado 663182" d="M441.616,158.868v7.7a1.4,1.4,0,0,1-1.4,1.4h-.355v1.429h4.612V158.73A18.262,18.262,0,0,1,441.616,158.868Z" transform="translate(-382.716 -158.73)" fill="#f57c00"/>
          <path id="Trazado_663183" data-name="Trazado 663183" d="M341.67,158.868v7.7a1.4,1.4,0,0,1-1.4,1.4h-.355v1.429h4.612V158.73A18.263,18.263,0,0,1,341.67,158.868Z" transform="translate(-297.057 -158.73)" fill="#f57c00"/>
        </g>
        <path id="Trazado_663184" data-name="Trazado 663184" d="M16.469,266.674a1.09,1.09,0,1,1-1.09-1.09A1.09,1.09,0,0,1,16.469,266.674Zm-4.806,5.894a1.09,1.09,0,1,0,1.09,1.09A1.09,1.09,0,0,0,11.663,272.568Zm-3.288,6.984a1.09,1.09,0,1,0,1.09,1.09A1.09,1.09,0,0,0,8.375,279.552Zm15.009-13.968a1.09,1.09,0,1,0,1.09,1.09A1.09,1.09,0,0,0,23.384,265.584Zm7.866,0a1.09,1.09,0,1,0,1.09,1.09A1.09,1.09,0,0,0,31.249,265.584Zm7.718,0a1.09,1.09,0,1,0,1.09,1.09A1.09,1.09,0,0,0,38.967,265.584Zm-18.013,6.984a1.09,1.09,0,1,0,1.09,1.09A1.09,1.09,0,0,0,20.954,272.568Zm8.866,0a1.09,1.09,0,1,0,1.09,1.09A1.09,1.09,0,0,0,29.82,272.568Zm8.718,0a1.09,1.09,0,1,0,1.09,1.09A1.09,1.09,0,0,0,38.538,272.568Zm-20.3,6.984a1.09,1.09,0,1,0,1.09,1.09A1.09,1.09,0,0,0,18.238,279.552Zm9.867,0a1.09,1.09,0,1,0,1.09,1.09A1.09,1.09,0,0,0,28.1,279.552Zm9.719,0a1.09,1.09,0,1,0,1.09,1.09A1.09,1.09,0,0,0,37.824,279.552Zm-22.73,6.984a1.09,1.09,0,1,0,1.09,1.09A1.09,1.09,0,0,0,15.093,286.536Zm11.3,0a1.09,1.09,0,1,0,1.09,1.09A1.09,1.09,0,0,0,26.389,286.536Zm10.862,0a1.09,1.09,0,1,0,1.09,1.09A1.09,1.09,0,0,0,37.252,286.536Zm-24.875,6.984a1.09,1.09,0,1,0,1.09,1.09A1.09,1.09,0,0,0,12.377,293.519Zm11.868,0a1.09,1.09,0,1,0,1.09,1.09A1.09,1.09,0,0,0,24.245,293.519Zm12.292,0a1.09,1.09,0,1,0,1.09,1.09A1.09,1.09,0,0,0,36.537,293.519Zm32.686-26.846a1.09,1.09,0,1,0,1.09-1.09A1.09,1.09,0,0,0,69.223,266.674Zm3.717,6.984a1.09,1.09,0,1,0,1.09-1.09A1.09,1.09,0,0,0,72.939,273.658Zm3.288,6.984a1.09,1.09,0,1,0,1.09-1.09A1.09,1.09,0,0,0,76.227,280.641ZM61.218,266.674a1.09,1.09,0,1,0,1.09-1.09A1.09,1.09,0,0,0,61.218,266.674Zm-7.866,0a1.09,1.09,0,1,0,1.09-1.09A1.09,1.09,0,0,0,53.352,266.674Zm-7.718,0a1.09,1.09,0,1,0,1.09-1.09A1.09,1.09,0,0,0,45.635,266.674Zm18.013,6.984a1.09,1.09,0,1,0,1.09-1.09A1.09,1.09,0,0,0,63.648,273.658Zm-8.866,0a1.09,1.09,0,1,0,1.09-1.09A1.09,1.09,0,0,0,54.782,273.658Zm-8.718,0a1.09,1.09,0,1,0,1.09-1.09A1.09,1.09,0,0,0,46.063,273.658Zm20.3,6.984a1.09,1.09,0,1,0,1.09-1.09A1.09,1.09,0,0,0,66.364,280.641Zm-9.867,0a1.09,1.09,0,1,0,1.09-1.09A1.09,1.09,0,0,0,56.5,280.641Zm-9.719,0a1.09,1.09,0,1,0,1.09-1.09A1.09,1.09,0,0,0,46.778,280.641Zm22.73,6.984a1.09,1.09,0,1,0,1.09-1.09A1.09,1.09,0,0,0,69.509,287.625Zm-11.3,0a1.09,1.09,0,1,0,1.09-1.09A1.09,1.09,0,0,0,58.212,287.625Zm-10.862,0a1.09,1.09,0,1,0,1.09-1.09A1.09,1.09,0,0,0,47.35,287.625Zm24.875,6.984a1.09,1.09,0,1,0,1.09-1.09A1.09,1.09,0,0,0,72.224,294.609Zm-11.868,0a1.09,1.09,0,1,0,1.09-1.09A1.09,1.09,0,0,0,60.357,294.609Zm-12.292,0a1.09,1.09,0,1,0,1.09-1.09A1.09,1.09,0,0,0,48.065,294.609Z" transform="translate(-6.244 -228.124)" fill="#6d4c41"/>
        <path id="Trazado_663185" data-name="Trazado 663185" d="M0,248.249l9.182-14.942H1.328A1.328,1.328,0,0,0,0,234.635Z" transform="translate(0 -200.46)" fill="#8d6e63"/>
        <path id="Trazado_663186" data-name="Trazado 663186" d="M4.893,233.307,0,241.271v6.979l9.182-14.942Z" transform="translate(0 -200.46)" fill="#6d4c41"/>
        <path id="Trazado_663187" data-name="Trazado 663187" d="M34.9,281.725l.33-2.15A1.09,1.09,0,0,1,35,281.73C34.967,281.73,34.933,281.728,34.9,281.725Zm-15.25-8.068a1.084,1.084,0,0,0-.268-.715l-.831,1.8h.01A1.09,1.09,0,0,0,19.649,273.657Zm6.575,6.984a1.09,1.09,0,0,0-1.09-1.09c-.03,0-.059,0-.088,0l-.594,1.934a1.089,1.089,0,0,0,1.772-.849Zm11.582-6.984a1.09,1.09,0,0,0-1.514-1l-.282,1.833a1.089,1.089,0,0,0,1.8-.829Zm-3.431,13.968a1.084,1.084,0,0,0-.273-.72l-.254,1.651A1.088,1.088,0,0,0,34.376,287.624Zm-18.014-6.984a1.084,1.084,0,0,0-.224-.66l-.805,1.747A1.089,1.089,0,0,0,16.361,280.641Zm5.914-12.878a1.089,1.089,0,0,0,.451-2.081l-.912,1.978A1.082,1.082,0,0,0,22.276,267.763Zm.8,19.862a1.084,1.084,0,0,0-.287-.735l-.551,1.794A1.089,1.089,0,0,0,23.08,287.624Zm4.771-12.878a1.09,1.09,0,1,0-.749-1.88l-.315,1.024A1.09,1.09,0,0,0,27.851,274.746Zm10.3-6.984a1.09,1.09,0,1,0-.826-1.8l-.175,1.14A1.09,1.09,0,0,0,38.146,267.763Zm-8.955-1.09a1.09,1.09,0,1,0,1.09-1.09A1.09,1.09,0,0,0,29.191,266.673Zm16.673-1.09a1.085,1.085,0,0,0-.446.1v1.987a1.089,1.089,0,1,0,.446-2.083Zm24.355,1.484a1.086,1.086,0,0,0-.655-1.422ZM81.3,294.608a1.094,1.094,0,0,0-.025-.231,4.736,4.736,0,0,1-.708,1.259A1.089,1.089,0,0,0,81.3,294.608Zm2.913-15.057a1.084,1.084,0,0,0-.736.288v1.6a1.089,1.089,0,1,0,.736-1.892Zm-30.424-11.8a1.089,1.089,0,1,0-.331-2.152Zm23.538-2.158.9,1.466a1.087,1.087,0,0,0-.9-1.466Zm-30.8,8.067a1.09,1.09,0,0,0-1.09-1.09h-.017v2.178h.017A1.09,1.09,0,0,0,46.525,273.657Zm-1.107,7.821a1.089,1.089,0,0,0,0-1.674Zm16.659-14A1.088,1.088,0,0,0,61.5,265.6Zm-6.263,13.456a1.079,1.079,0,0,0-.135-.879Zm-1.266-8.24.268,1.742a1.089,1.089,0,0,0-.268-1.742Z" transform="translate(-13.14 -228.123)" fill="#5d4037"/>
      </g>
    </g>
  </g>
</svg>
