<svg xmlns="http://www.w3.org/2000/svg" width="1240" height="749.825" viewBox="0 0 1240 749.825">
  <g id="Grupo_1013331" data-name="Grupo 1013331" transform="translate(-180 -617)">
    <g id="Grupo_1005351" data-name="Grupo 1005351" transform="translate(-9.917)">
      <rect id="Rectángulo_34091" data-name="Rectángulo 34091" width="295.501" height="49" rx="24.5" transform="translate(662.249 617)" fill="#0b481e"/>
      <text id="Riesgo_y_drenaje_del_cultivo" data-name="Riesgo y drenaje del cultivo" transform="translate(813.999 646.5)" fill="#fff" font-size="20" font-family="Roboto-Black, Roboto" font-weight="800"><tspan x="-124.59" y="0">Riesgo y drenaje del cultivo</tspan></text>
    </g>
    <g id="Grupo_1004718" data-name="Grupo 1004718" transform="translate(-557.409 1835.922) rotate(-90)">
      <line id="Línea_154" data-name="Línea 154" x1="0.167" y2="24.668" transform="translate(799.166 746.742)" fill="none" stroke="#0b481e" stroke-width="3"/>
      <path id="Trazado_118034" data-name="Trazado 118034" d="M-11969.333-9290.667l10,6,10-6" transform="translate(12758.666 10056.41)" fill="none" stroke="#0b481e" stroke-linecap="round" stroke-width="3"/>
    </g>
    <g id="Grupo_1005361" data-name="Grupo 1005361" transform="translate(-348.409 1842.334) rotate(-90)">
      <line id="Línea_154-2" data-name="Línea 154" x1="0.167" y2="24.668" transform="translate(799.166 746.742)" fill="none" stroke="#0b481e" stroke-width="3"/>
      <path id="Trazado_118034-2" data-name="Trazado 118034" d="M-11969.333-9290.667l10,6,10-6" transform="translate(12758.666 10056.41)" fill="none" stroke="#0b481e" stroke-linecap="round" stroke-width="3"/>
    </g>
    <g id="Grupo_1005362" data-name="Grupo 1005362" transform="translate(-348.409 1934.334) rotate(-90)">
      <line id="Línea_154-3" data-name="Línea 154" x1="0.167" y2="24.668" transform="translate(799.166 746.742)" fill="none" stroke="#0b481e" stroke-width="3"/>
      <path id="Trazado_118034-3" data-name="Trazado 118034" d="M-11969.333-9290.667l10,6,10-6" transform="translate(12758.666 10056.41)" fill="none" stroke="#0b481e" stroke-linecap="round" stroke-width="3"/>
    </g>
    <g id="Grupo_1005363" data-name="Grupo 1005363" transform="translate(-348.409 2033.334) rotate(-90)">
      <line id="Línea_154-4" data-name="Línea 154" x1="0.167" y2="24.668" transform="translate(799.166 746.742)" fill="none" stroke="#0b481e" stroke-width="3"/>
      <path id="Trazado_118034-4" data-name="Trazado 118034" d="M-11969.333-9290.667l10,6,10-6" transform="translate(12758.666 10056.41)" fill="none" stroke="#0b481e" stroke-linecap="round" stroke-width="3"/>
    </g>
    <g id="Grupo_1005365" data-name="Grupo 1005365" transform="translate(-128.243 2011.334) rotate(-90)">
      <line id="Línea_154-5" data-name="Línea 154" x1="0.167" y2="24.668" transform="translate(799.166 746.742)" fill="none" stroke="#0b481e" stroke-width="3"/>
      <path id="Trazado_118034-5" data-name="Trazado 118034" d="M-11969.333-9290.667l10,6,10-6" transform="translate(12758.666 10056.41)" fill="none" stroke="#0b481e" stroke-linecap="round" stroke-width="3"/>
    </g>
    <g id="Grupo_1005366" data-name="Grupo 1005366" transform="translate(-128.243 1949.334) rotate(-90)">
      <line id="Línea_154-6" data-name="Línea 154" x1="0.167" y2="24.668" transform="translate(799.166 746.742)" fill="none" stroke="#0b481e" stroke-width="3"/>
      <path id="Trazado_118034-6" data-name="Trazado 118034" d="M-11969.333-9290.667l10,6,10-6" transform="translate(12758.666 10056.41)" fill="none" stroke="#0b481e" stroke-linecap="round" stroke-width="3"/>
    </g>
    <g id="Grupo_1005372" data-name="Grupo 1005372" transform="translate(93.258 1844.671) rotate(-90)">
      <line id="Línea_154-7" data-name="Línea 154" x1="0.167" y2="24.668" transform="translate(799.166 746.742)" fill="none" stroke="#0b481e" stroke-width="3"/>
      <path id="Trazado_118034-7" data-name="Trazado 118034" d="M-11969.333-9290.667l10,6,10-6" transform="translate(12758.666 10056.41)" fill="none" stroke="#0b481e" stroke-linecap="round" stroke-width="3"/>
    </g>
    <g id="Grupo_1005378" data-name="Grupo 1005378" transform="translate(2052.075 234.254) rotate(90)">
      <line id="Línea_154-8" data-name="Línea 154" x1="0.167" y2="24.668" transform="translate(799.166 746.742)" fill="none" stroke="#0b481e" stroke-width="3"/>
      <path id="Trazado_118034-8" data-name="Trazado 118034" d="M-11969.333-9290.667l10,6,10-6" transform="translate(12758.666 10056.41)" fill="none" stroke="#0b481e" stroke-linecap="round" stroke-width="3"/>
    </g>
    <g id="Grupo_1005379" data-name="Grupo 1005379" transform="translate(2050.241 290.354) rotate(90)">
      <line id="Línea_154-9" data-name="Línea 154" x1="0.167" y2="24.668" transform="translate(799.166 746.742)" fill="none" stroke="#0b481e" stroke-width="3"/>
      <path id="Trazado_118034-9" data-name="Trazado 118034" d="M-11969.333-9290.667l10,6,10-6" transform="translate(12758.666 10056.41)" fill="none" stroke="#0b481e" stroke-linecap="round" stroke-width="3"/>
    </g>
    <g id="Grupo_1005373" data-name="Grupo 1005373" transform="translate(91.591 1924.671) rotate(-90)">
      <line id="Línea_154-10" data-name="Línea 154" x1="0.167" y2="24.668" transform="translate(799.166 746.742)" fill="none" stroke="#0b481e" stroke-width="3"/>
      <path id="Trazado_118034-10" data-name="Trazado 118034" d="M-11969.333-9290.667l10,6,10-6" transform="translate(12758.666 10056.41)" fill="none" stroke="#0b481e" stroke-linecap="round" stroke-width="3"/>
    </g>
    <g id="Grupo_1005374" data-name="Grupo 1005374" transform="translate(91.591 1992.346) rotate(-90)">
      <line id="Línea_154-11" data-name="Línea 154" x1="0.167" y2="24.668" transform="translate(799.166 746.742)" fill="none" stroke="#0b481e" stroke-width="3"/>
      <path id="Trazado_118034-11" data-name="Trazado 118034" d="M-11969.333-9290.667l10,6,10-6" transform="translate(12758.666 10056.41)" fill="none" stroke="#0b481e" stroke-linecap="round" stroke-width="3"/>
    </g>
    <g id="Grupo_1005375" data-name="Grupo 1005375" transform="translate(93.258 2060.021) rotate(-90)">
      <line id="Línea_154-12" data-name="Línea 154" x1="0.167" y2="24.668" transform="translate(799.166 746.742)" fill="none" stroke="#0b481e" stroke-width="3"/>
      <path id="Trazado_118034-12" data-name="Trazado 118034" d="M-11969.333-9290.667l10,6,10-6" transform="translate(12758.666 10056.41)" fill="none" stroke="#0b481e" stroke-linecap="round" stroke-width="3"/>
    </g>
    <g id="Grupo_1005376" data-name="Grupo 1005376" transform="translate(91.591 2134.021) rotate(-90)">
      <line id="Línea_154-13" data-name="Línea 154" x1="0.167" y2="24.668" transform="translate(799.166 746.742)" fill="none" stroke="#0b481e" stroke-width="3"/>
      <path id="Trazado_118034-13" data-name="Trazado 118034" d="M-11969.333-9290.667l10,6,10-6" transform="translate(12758.666 10056.41)" fill="none" stroke="#0b481e" stroke-linecap="round" stroke-width="3"/>
    </g>
    <g id="Grupo_1005367" data-name="Grupo 1005367" transform="translate(-128.243 1887.334) rotate(-90)">
      <line id="Línea_154-14" data-name="Línea 154" x1="0.167" y2="24.668" transform="translate(799.166 746.742)" fill="none" stroke="#0b481e" stroke-width="3"/>
      <path id="Trazado_118034-14" data-name="Trazado 118034" d="M-11969.333-9290.667l10,6,10-6" transform="translate(12758.666 10056.41)" fill="none" stroke="#0b481e" stroke-linecap="round" stroke-width="3"/>
    </g>
    <g id="Grupo_1005368" data-name="Grupo 1005368" transform="translate(-128.243 1829.334) rotate(-90)">
      <line id="Línea_154-15" data-name="Línea 154" x1="0.167" y2="24.668" transform="translate(799.166 746.742)" fill="none" stroke="#0b481e" stroke-width="3"/>
      <path id="Trazado_118034-15" data-name="Trazado 118034" d="M-11969.333-9290.667l10,6,10-6" transform="translate(12758.666 10056.41)" fill="none" stroke="#0b481e" stroke-linecap="round" stroke-width="3"/>
    </g>
    <g id="Grupo_1005359" data-name="Grupo 1005359" transform="translate(-557.409 1910.922) rotate(-90)">
      <line id="Línea_154-16" data-name="Línea 154" x1="0.167" y2="24.668" transform="translate(799.166 746.742)" fill="none" stroke="#0b481e" stroke-width="3"/>
      <path id="Trazado_118034-16" data-name="Trazado 118034" d="M-11969.333-9290.667l10,6,10-6" transform="translate(12758.666 10056.41)" fill="none" stroke="#0b481e" stroke-linecap="round" stroke-width="3"/>
    </g>
    <g id="Grupo_1004715" data-name="Grupo 1004715" transform="translate(-283.667 9.591)">
      <line id="Línea_154-17" data-name="Línea 154" x1="0.167" y2="39" transform="translate(799.166 746.742)" fill="none" stroke="#0b481e" stroke-width="3"/>
      <path id="Trazado_118034-17" data-name="Trazado 118034" d="M-11969.333-9290.667l10,6,10-6" transform="translate(12758.666 10070.742)" fill="none" stroke="#0b481e" stroke-linecap="round" stroke-width="3"/>
    </g>
    <g id="Grupo_1004721" data-name="Grupo 1004721" transform="translate(10.667 10.757)">
      <line id="Línea_154-18" data-name="Línea 154" x1="0.167" y2="39" transform="translate(799.166 746.742)" fill="none" stroke="#0b481e" stroke-width="3"/>
      <path id="Trazado_118034-18" data-name="Trazado 118034" d="M-11969.333-9290.667l10,6,10-6" transform="translate(12758.666 10070.742)" fill="none" stroke="#0b481e" stroke-linecap="round" stroke-width="3"/>
    </g>
    <g id="Grupo_1004726" data-name="Grupo 1004726" transform="translate(297.001 10.757)">
      <line id="Línea_154-19" data-name="Línea 154" x1="0.167" y2="39" transform="translate(799.166 746.742)" fill="none" stroke="#0b481e" stroke-width="3"/>
      <path id="Trazado_118034-19" data-name="Trazado 118034" d="M-11969.333-9290.667l10,6,10-6" transform="translate(12758.666 10070.742)" fill="none" stroke="#0b481e" stroke-linecap="round" stroke-width="3"/>
    </g>
    <g id="Grupo_1004731" data-name="Grupo 1004731" transform="translate(10.667 -86.742)">
      <line id="Línea_154-20" data-name="Línea 154" x1="0.167" y2="60.667" transform="translate(799.166 746.742)" fill="none" stroke="#0b481e" stroke-width="3"/>
      <path id="Trazado_118034-20" data-name="Trazado 118034" d="M-11969.333-9290.667l10,6,10-6" transform="translate(12758.666 10092.409)" fill="none" stroke="#0b481e" stroke-linecap="round" stroke-width="3"/>
    </g>
    <g id="Grupo_1004716" data-name="Grupo 1004716" transform="translate(-532.167 138.346)">
      <line id="Línea_154-21" data-name="Línea 154" x1="0.167" y2="39" transform="translate(799.166 746.742)" fill="none" stroke="#0b481e" stroke-width="3"/>
      <path id="Trazado_118034-21" data-name="Trazado 118034" d="M-11969.333-9290.667l10,6,10-6" transform="translate(12758.666 10070.742)" fill="none" stroke="#0b481e" stroke-linecap="round" stroke-width="3"/>
    </g>
    <g id="Grupo_1004724" data-name="Grupo 1004724" transform="translate(-323.168 143.758)">
      <line id="Línea_154-22" data-name="Línea 154" x1="0.167" y2="39" transform="translate(799.166 746.742)" fill="none" stroke="#0b481e" stroke-width="3"/>
      <path id="Trazado_118034-22" data-name="Trazado 118034" d="M-11969.333-9290.667l10,6,10-6" transform="translate(12758.666 10070.742)" fill="none" stroke="#0b481e" stroke-linecap="round" stroke-width="3"/>
    </g>
    <g id="Grupo_1005369" data-name="Grupo 1005369" transform="translate(327.833 134.258)">
      <line id="Línea_154-23" data-name="Línea 154" x1="0.167" y2="39" transform="translate(799.166 746.742)" fill="none" stroke="#0b481e" stroke-width="3"/>
      <path id="Trazado_118034-23" data-name="Trazado 118034" d="M-11969.333-9290.667l10,6,10-6" transform="translate(12758.666 10070.742)" fill="none" stroke="#0b481e" stroke-linecap="round" stroke-width="3"/>
    </g>
    <g id="Grupo_1004727" data-name="Grupo 1004727" transform="translate(-104.667 142.424)">
      <line id="Línea_154-24" data-name="Línea 154" x1="0.167" y2="39" transform="translate(799.166 746.742)" fill="none" stroke="#0b481e" stroke-width="3"/>
      <path id="Trazado_118034-24" data-name="Trazado 118034" d="M-11969.333-9290.667l10,6,10-6" transform="translate(12758.666 10070.742)" fill="none" stroke="#0b481e" stroke-linecap="round" stroke-width="3"/>
    </g>
    <g id="Grupo_1005370" data-name="Grupo 1005370" transform="translate(117.333 133.258)">
      <line id="Línea_154-25" data-name="Línea 154" x1="0.167" y2="39" transform="translate(799.166 746.742)" fill="none" stroke="#0b481e" stroke-width="3"/>
      <path id="Trazado_118034-25" data-name="Trazado 118034" d="M-11969.333-9290.667l10,6,10-6" transform="translate(12758.666 10070.742)" fill="none" stroke="#0b481e" stroke-linecap="round" stroke-width="3"/>
    </g>
    <g id="Grupo_1004717" data-name="Grupo 1004717" transform="translate(-483.333 205.845)">
      <line id="Línea_154-26" data-name="Línea 154" x1="0.167" y2="39" transform="translate(748.166 746.742)" fill="none" stroke="#0b481e" stroke-width="3"/>
      <path id="Trazado_632197" data-name="Trazado 632197" d="M748.333,785.742H671.666v121.5" fill="none" stroke="#0b481e" stroke-width="3"/>
    </g>
    <g id="Grupo_1005360" data-name="Grupo 1005360" transform="translate(-273.333 207.257)">
      <line id="Línea_154-27" data-name="Línea 154" x1="0.167" y2="39" transform="translate(748.166 746.742)" fill="none" stroke="#0b481e" stroke-width="3"/>
      <path id="Trazado_632197-2" data-name="Trazado 632197" d="M748.333,785.742H671.666V1028.41" transform="translate(0 0)" fill="none" stroke="#0b481e" stroke-width="3"/>
    </g>
    <g id="Grupo_1005364" data-name="Grupo 1005364" transform="translate(-53.501 211.763)">
      <line id="Línea_154-28" data-name="Línea 154" x1="0.167" y2="39" transform="translate(748.166 746.742)" fill="none" stroke="#0b481e" stroke-width="3"/>
      <path id="Trazado_632197-3" data-name="Trazado 632197" d="M748.333,785.742H671.666V1017.57" transform="translate(0 0)" fill="none" stroke="#0b481e" stroke-width="3"/>
    </g>
    <g id="Grupo_1005377" data-name="Grupo 1005377" transform="translate(454.334 198.757)">
      <line id="Línea_154-29" data-name="Línea 154" x2="0.167" y2="39" transform="translate(671.666 746.742)" fill="none" stroke="#0b481e" stroke-width="3"/>
      <path id="Trazado_632197-4" data-name="Trazado 632197" d="M671.666,785.742H851V890.931" transform="translate(0 0)" fill="none" stroke="#0b481e" stroke-width="3"/>
    </g>
    <g id="Grupo_1005371" data-name="Grupo 1005371" transform="translate(166.667 202.597)">
      <line id="Línea_154-30" data-name="Línea 154" x1="0.167" y2="39" transform="translate(748.166 746.742)" fill="none" stroke="#0b481e" stroke-width="3"/>
      <path id="Trazado_632197-5" data-name="Trazado 632197" d="M748.333,785.742H671.666v347.994" fill="none" stroke="#0b481e" stroke-width="3"/>
    </g>
    <g id="Grupo_1005358" data-name="Grupo 1005358" transform="translate(0 17.256)">
      <rect id="Rectángulo_34788" data-name="Rectángulo 34788" width="168.999" height="52.5" rx="26.25" transform="translate(180 815.332)" fill="#ffa686"/>
      <text id="Potencial_hídrico" data-name="Potencial hídrico" transform="translate(266.666 847.832)" fill="#12263f" font-size="16" font-family="Roboto-Black, Roboto" font-weight="800"><tspan x="-61.23" y="0">Potencial hídrico</tspan></text>
    </g>
    <g id="Grupo_1005355" data-name="Grupo 1005355" transform="translate(21.001 10.001)">
      <rect id="Rectángulo_347814" data-name="Rectángulo 347814" width="168.999" height="52.5" rx="26.25" transform="translate(810 817.499)" fill="#ffa686"/>
      <text id="Sistema_de_riego" data-name="Sistema de riego" transform="translate(896.666 849.999)" fill="#12263f" font-size="16" font-family="Roboto-Black, Roboto" font-weight="800"><tspan x="-61.063" y="0">Sistema de riego</tspan></text>
    </g>
    <g id="Grupo_1005357" data-name="Grupo 1005357" transform="translate(0 1.668)">
      <rect id="Rectángulo_347811" data-name="Rectángulo 347811" width="168.999" height="73.5" rx="36" transform="translate(390 815.332)" fill="#ffa686"/>
      <text id="Propiedades_del_suelo_y_agua" data-name="Propiedades del
 suelo y agua" transform="translate(476.666 847.832)" fill="#12263f" font-size="16" font-family="Roboto-Black, Roboto" font-weight="800"><tspan x="-58.395" y="0">Propiedades del</tspan><tspan x="-47.383" y="24" xml:space="preserve"> suelo y agua</tspan></text>
    </g>
    <g id="Grupo_1005354" data-name="Grupo 1005354" transform="translate(21.001 10.001)">
      <g id="Grupo_1005353" data-name="Grupo 1005353">
        <rect id="Rectángulo_347815" data-name="Rectángulo 347815" width="168.999" height="52.5" rx="26.25" transform="translate(1020 817.499)" fill="#ffa686"/>
        <text id="Drenaje" transform="translate(1106.666 849.999)" fill="#12263f" font-size="16" font-family="Roboto-Black, Roboto" font-weight="800"><tspan x="-27.832" y="0">Drenaje</tspan></text>
      </g>
    </g>
    <g id="Grupo_1005356" data-name="Grupo 1005356" transform="translate(0 -0.499)">
      <rect id="Rectángulo_347812" data-name="Rectángulo 347812" width="190" height="72" rx="36" transform="translate(600 817.499)" fill="#ffa686"/>
      <text id="Relación_agua_-_suelo_-plantas_y_clima_" data-name="Relación agua - 
suelo -plantas y clima
" transform="translate(699.666 844.999)" fill="#12263f" font-size="16" font-family="Roboto-Black, Roboto" font-weight="800"><tspan x="-58.559" y="0">Relación agua - </tspan><tspan x="-79.617" y="24">suelo -plantas y clima</tspan><tspan x="0" y="48"></tspan></text>
    </g>
    <g id="Grupo_1005352" data-name="Grupo 1005352" transform="translate(21.001 7.834)">
      <rect id="Rectángulo_347813" data-name="Rectángulo 347813" width="168.999" height="52.5" rx="26.25" transform="translate(1230 819.666)" fill="#ffa686"/>
      <text id="Normatividad_" data-name="Normatividad " transform="translate(1316.666 852.166)" fill="#12263f" font-size="16" font-family="Roboto-Black, Roboto" font-weight="800"><tspan x="-50.793" y="0">Normatividad </tspan></text>
    </g>
    <rect id="Rectángulo_330004" data-name="Rectángulo 330004" width="150.999" height="57.749" rx="28.875" transform="translate(219.001 1004.67)" fill="#cee284"/>
    <rect id="Rectángulo_347817" data-name="Rectángulo 347817" width="150.999" height="57.749" rx="28.875" transform="translate(429.001 1013.5)" fill="#cee284"/>
    <rect id="Rectángulo_347816" data-name="Rectángulo 347816" width="150.999" height="57.749" rx="28.875" transform="translate(219.001 1078.836)" fill="#cee284"/>
    <rect id="Rectángulo_347818" data-name="Rectángulo 347818" width="150.999" height="87.334" rx="43.667" transform="translate(429.001 1087.666)" fill="#cee284"/>
    <rect id="Rectángulo_347819" data-name="Rectángulo 347819" width="150.999" height="87.334" rx="43.667" transform="translate(429.001 1186.376)" fill="#cee284"/>
    <rect id="Rectángulo_347533" data-name="Rectángulo 347533" width="129.667" height="43.584" rx="21.792" transform="translate(648.499 1012.503)" fill="#cee284"/>
    <rect id="Rectángulo_347822" data-name="Rectángulo 347822" width="176.667" height="43.584" rx="21.792" transform="translate(649.167 1119.245)" fill="#cee284"/>
    <rect id="Rectángulo_347829" data-name="Rectángulo 347829" width="176.667" height="43.584" rx="21.792" transform="translate(1096.833 1012.503)" fill="#cee284"/>
    <rect id="Rectángulo_347830" data-name="Rectángulo 347830" width="198.834" height="43.584" rx="21.792" transform="translate(1074.666 1070.206)" fill="#cee284"/>
    <rect id="Rectángulo_347820" data-name="Rectángulo 347820" width="129.667" height="43.584" rx="21.792" transform="translate(648.499 1065.874)" fill="#cee284"/>
    <rect id="Rectángulo_347821" data-name="Rectángulo 347821" width="129.667" height="60.794" rx="30.397" transform="translate(649.167 1172.616)" fill="#cee284"/>
    <rect id="Rectángulo_347823" data-name="Rectángulo 347823" width="129.667" height="60.794" rx="30.397" transform="translate(869.333 1012.503)" fill="#cee284"/>
    <rect id="Rectángulo_347824" data-name="Rectángulo 347824" width="129.667" height="60.794" rx="30.397" transform="translate(869.333 1086.668)" fill="#cee284"/>
    <rect id="Rectángulo_347826" data-name="Rectángulo 347826" width="129.667" height="60.794" rx="30.397" transform="translate(869.333 1159.789)" fill="#cee284"/>
    <rect id="Rectángulo_347828" data-name="Rectángulo 347828" width="190.667" height="60.794" rx="30.397" transform="translate(869.333 1232.91)" fill="#cee284"/>
    <rect id="Rectángulo_347827" data-name="Rectángulo 347827" width="185.167" height="60.794" rx="30.397" transform="translate(869.333 1306.031)" fill="#cee284"/>
    <text id="Características_del_agua" data-name="Características 
del agua" transform="translate(295.5 1028.045)" fill="#12263f" font-size="16" font-family="Roboto-Regular, Roboto"><tspan x="-55.508" y="0">Características </tspan><tspan x="-30.273" y="24">del agua</tspan></text>
    <text id="Textura_y_estructura" data-name="Textura y
 estructura" transform="translate(505.5 1036.875)" fill="#12263f" font-size="16" font-family="Roboto-Regular, Roboto"><tspan x="-32.668" y="0">Textura y</tspan><tspan x="-38.188" y="24" xml:space="preserve"> estructura</tspan></text>
    <text id="Métodos_de_captación_agua" data-name="Métodos de 
captación agua" transform="translate(294.999 1102.754)" fill="#12263f" font-size="16" font-family="Roboto-Regular, Roboto"><tspan x="-44.23" y="0">Métodos de </tspan><tspan x="-54.68" y="24">captación agua</tspan></text>
    <text id="Agua_en_el_suelo_y_estados_de_humedad" data-name="Agua en el
 suelo y estados 
de humedad" transform="translate(504.999 1111.585)" fill="#12263f" font-size="16" font-family="Roboto-Regular, Roboto"><tspan x="-37.262" y="0">Agua en el</tspan><tspan x="-59.512" y="24" xml:space="preserve"> suelo y estados </tspan><tspan x="-44.172" y="48">de humedad</tspan></text>
    <text id="Infiltración_y_capacidad_de_retención_" data-name="Infiltración y
 capacidad 
de retención  
" transform="translate(504.999 1213.295)" fill="#12263f" font-size="16" font-family="Roboto-Regular, Roboto"><tspan x="-43.348" y="0">Infiltración y</tspan><tspan x="-40.844" y="24" xml:space="preserve"> capacidad </tspan><tspan x="-48.008" y="48" xml:space="preserve">de retención  </tspan><tspan x="0" y="72"></tspan></text>
    <text id="Evaporación" transform="translate(674 1039.087)" fill="#12263f" font-size="16" font-family="Roboto-Regular, Roboto"><tspan x="0" y="0">Evaporación</tspan></text>
    <text id="Evapotranspiración" transform="translate(674.668 1145.829)" fill="#12263f" font-size="16" font-family="Roboto-Regular, Roboto"><tspan x="0" y="0">Evapotranspiración</tspan></text>
    <text id="Clases_de_drenaje" data-name="Clases de drenaje" transform="translate(1122.334 1039.087)" fill="#12263f" font-size="16" font-family="Roboto-Regular, Roboto"><tspan x="0" y="0">Clases de drenaje</tspan></text>
    <text id="Beneficios_del_drenaje_" data-name="Beneficios del drenaje
" transform="translate(1101 1096.295)" fill="#12263f" font-size="16" font-family="Roboto-Regular, Roboto"><tspan x="0" y="0">Beneficios del drenaje</tspan><tspan x="0" y="24"></tspan></text>
    <text id="Traspiración" transform="translate(674 1092.458)" fill="#12263f" font-size="16" font-family="Roboto-Regular, Roboto"><tspan x="0" y="0">Traspiración</tspan></text>
    <text id="Influencia_del_clima" data-name="Influencia 
del clima" transform="translate(685.834 1196.514)" fill="#12263f" font-size="16" font-family="Roboto-Regular, Roboto"><tspan x="0" y="0">Influencia </tspan><tspan x="0" y="24">del clima</tspan></text>
    <text id="Métodos_de_riego" data-name="Métodos 
de riego" transform="translate(934.5 1037.504)" fill="#12263f" font-size="16" font-family="Roboto-Regular, Roboto"><tspan x="-33.5" y="0">Métodos </tspan><tspan x="-28.668" y="24">de riego</tspan></text>
    <text id="Criterios_de_selección" data-name="Criterios de
 selección" transform="translate(935 1110.625)" fill="#12263f" font-size="16" font-family="Roboto-Regular, Roboto"><tspan x="-40.773" y="0">Criterios de</tspan><tspan x="-35.816" y="24" xml:space="preserve"> selección</tspan></text>
    <text id="Variables_de_medición" data-name="Variables de
 medición" transform="translate(935 1183.746)" fill="#12263f" font-size="16" font-family="Roboto-Regular, Roboto"><tspan x="-43.785" y="0">Variables de</tspan><tspan x="-34.789" y="24" xml:space="preserve"> medición</tspan></text>
    <text id="Requerimientos_de_riego_" data-name="Requerimientos
 de riego
" transform="translate(963 1257.461)" fill="#12263f" font-size="16" font-family="Roboto-Regular, Roboto"><tspan x="-55.836" y="0">Requerimientos</tspan><tspan x="-30.648" y="24" xml:space="preserve"> de riego</tspan><tspan x="0" y="48"></tspan></text>
    <text id="Equipos_de_medición_y_control" data-name="Equipos de
 medición y control" transform="translate(961.001 1329.873)" fill="#12263f" font-size="16" font-family="Roboto-Regular, Roboto"><tspan x="-39.352" y="0">Equipos de</tspan><tspan x="-67.445" y="24" xml:space="preserve"> medición y control</tspan></text>
    <text id="_" data-name="







" transform="translate(1273.5 1104.688)" fill="#12263f" font-size="16" font-family="Roboto-Regular, Roboto"><tspan x="0" y="0"></tspan><tspan x="0" y="24"></tspan><tspan x="0" y="48"></tspan><tspan x="0" y="72"></tspan><tspan x="0" y="96"></tspan><tspan x="0" y="120"></tspan><tspan x="0" y="144"></tspan><tspan x="0" y="168"></tspan><tspan x="0" y="192"></tspan></text>
    <text id="Involucra" transform="translate(810 740)" fill="#12263f" font-size="16" font-family="Roboto-Regular, Roboto"><tspan x="-32.41" y="0">Involucra</tspan></text>
    <text id="Estableciendo" transform="translate(264.499 948.587)" fill="#12263f" font-size="16" font-family="Roboto-Regular, Roboto"><tspan x="-50.16" y="0">Estableciendo</tspan></text>
    <text id="Teniendo_en_cuenta" data-name="Teniendo en cuenta" transform="translate(474.499 949.999)" fill="#12263f" font-size="16" font-family="Roboto-Regular, Roboto"><tspan x="-69.922" y="0">Teniendo en cuenta</tspan></text>
    <text id="Teniendo_en_cuenta-2" data-name="Teniendo en cuenta" transform="translate(1125.5 940.499)" fill="#12263f" font-size="16" font-family="Roboto-Regular, Roboto"><tspan x="-69.922" y="0">Teniendo en cuenta</tspan></text>
    <text id="Según" transform="translate(695 949.002)" fill="#12263f" font-size="16" font-family="Roboto-Regular, Roboto"><tspan x="-22.297" y="0">Según</tspan></text>
    <text id="Según-2" data-name="Según" transform="translate(917 939.836)" fill="#12263f" font-size="16" font-family="Roboto-Regular, Roboto"><tspan x="-22.297" y="0">Según</tspan></text>
    <path id="Trazado_632196" data-name="Trazado 632196" d="M-11997.333-9482.989v580.333" transform="translate(9997.991 -11239.834) rotate(-90)" fill="none" stroke="#0b481e" stroke-width="3"/>
  </g>
</svg>
