<svg xmlns="http://www.w3.org/2000/svg" xmlns:xlink="http://www.w3.org/1999/xlink" width="65" height="65" viewBox="0 0 65 65">
  <defs>
    <filter id="Elipse_7668" x="0" y="0" width="65" height="65" filterUnits="userSpaceOnUse">
      <feOffset dy="3" input="SourceAlpha"/>
      <feGaussianBlur stdDeviation="3" result="blur"/>
      <feFlood flood-opacity="0.161"/>
      <feComposite operator="in" in2="blur"/>
      <feComposite in="SourceGraphic"/>
    </filter>
  </defs>
  <g id="Grupo_1013335" data-name="Grupo 1013335" transform="translate(-997 -4778.636)">
    <g id="Grupo_1004670" data-name="Grupo 1004670" transform="translate(1006 4780.471)">
      <g transform="matrix(1, 0, 0, 1, -9, -1.83)" filter="url(#Elipse_7668)">
        <circle id="Elipse_7668-2" data-name="Elipse 7668" cx="23.5" cy="23.5" r="23.5" transform="translate(9 6)" fill="#ffd3c3"/>
      </g>
      <g id="probador-de-agua" transform="translate(5.5 9.665)">
        <path id="Trazado_662971" data-name="Trazado 662971" d="M0,18q0-.144,0-.288a18,18,0,0,1,34.254-7.451c1.079,2.263-1.4,4.353-1.355,7.017q0,.144,0,.288l.682,3.015H.915Z" fill="#b1e4f9"/>
        <path id="Trazado_662972" data-name="Trazado 662972" d="M.915,246.646q-.141-.425-.262-.861-.188-.678-.323-1.379A18.062,18.062,0,0,1,0,240.967c0-.1,0-.192,0-.288.487.646.88,1.425,1.826,1.425,1.616,0,1.616-2.274,3.234-2.274S6.679,242.1,8.3,242.1s1.617-2.274,3.234-2.274,1.617,2.274,3.234,2.274S16.382,239.83,18,239.83s1.617,2.274,3.234,2.274,1.617-2.274,3.234-2.274S26.085,242.1,27.7,242.1s1.617-2.274,3.234-2.274,1.617,2.274,3.234,2.274c.947,0-.776-.861-.288-1.507,0,.1,0-.1,0,0a21.2,21.2,0,0,1-.326,3.727l-.019.1c-.086.433,1.072.942.956,1.363l-4.462,4.064H4.43" transform="translate(0 -222.967)" fill="#6bbef6"/>
        <path id="Trazado_662973" data-name="Trazado 662973" d="M46.9,303.465c-.15.754.5,1.692.258,2.409A17.937,17.937,0,0,1,45,310.225c-1.05,1.548-3.066.829-4.536,1.981a18,18,0,0,1-22.677-.394c-1.775-1.493-2.529-1.228-3.621-3.3a17.826,17.826,0,0,1-1.155-2.708c1.082-.451,1.268-2.166,2.671-2.166,1.617,0,1.617,2.275,3.234,2.275s1.617-2.275,3.234-2.275,1.617,2.275,3.234,2.275,1.616-2.275,3.234-2.275,1.617,2.275,3.234,2.275,1.617-2.275,3.234-2.275,1.617,2.275,3.234,2.275,1.617-2.275,3.234-2.275,1.618,2.275,3.235,2.275C46.309,305.916,45.554,303.709,46.9,303.465Z" transform="translate(-12.094 -282.127)" fill="#75cef9"/>
        <path id="Trazado_662974" data-name="Trazado 662974" d="M60.263,374.044a18.158,18.158,0,0,1-3.146,3.532q-.324.282-.661.545c-3.057,2.4-6.91,2.434-11.1,2.434-4.411,0-8.451-.2-11.581-2.829l-.176-.15a18.073,18.073,0,0,1-4.173-5.242,1.4,1.4,0,0,1,.781-.224c1.617,0,1.617,2.275,3.234,2.275s1.617-2.275,3.234-2.275,1.617,2.275,3.234,2.275,1.617-2.275,3.234-2.275,1.617,2.275,3.234,2.275S48,372.11,49.617,372.11s1.617,2.275,3.234,2.275,1.617-2.275,3.234-2.275,1.617,2.275,3.235,2.275A1.422,1.422,0,0,0,60.263,374.044Z" transform="translate(-27.361 -345.946)" fill="#90d8f9"/>
        <path id="Trazado_662975" data-name="Trazado 662975" d="M113.967,439.619a18,18,0,0,1-22.677-.394,1.817,1.817,0,0,1,1.494-.965c1.617,0,1.617,2.274,3.234,2.274s1.617-2.274,3.234-2.274,1.617,2.274,3.234,2.274,1.617-2.274,3.234-2.274,1.617,2.274,3.234,2.274,1.617-2.274,3.234-2.274C113.1,438.26,113.5,438.987,113.967,439.619Z" transform="translate(-84.871 -407.445)" fill="#b1e4f9"/>
        <g id="Grupo_1012695" data-name="Grupo 1012695" transform="translate(4.082 0)">
          <path id="Trazado_662976" data-name="Trazado 662976" d="M367.155,153.688a17.975,17.975,0,0,1-.886,5.593H356.2V145.95h9.21A17.916,17.916,0,0,1,367.155,153.688Z" transform="translate(-335.236 -135.688)" fill="#ffddce"/>
          <path id="Trazado_662977" data-name="Trazado 662977" d="M367.089,277.94a17.906,17.906,0,0,1-.821,4.05H356.2v-4.05Z" transform="translate(-335.236 -258.397)" fill="#ffcbbe"/>
          <path id="Trazado_662978" data-name="Trazado 662978" d="M62.2,124.339a2.367,2.367,0,0,0,0,4.734H60.417a2.367,2.367,0,0,0,0,4.734h1.055a2.367,2.367,0,1,0,0,4.734h3.417a2.367,2.367,0,0,0,0,4.734H76.572a6.529,6.529,0,0,0,6.529-6.529V129.8a5.461,5.461,0,0,0-5.461-5.461Z" transform="translate(-58.05 -115.596)" fill="#ffddce"/>
          <g id="Grupo_1012693" data-name="Grupo 1012693" transform="translate(0 10.262)">
            <path id="Trazado_662979" data-name="Trazado 662979" d="M142.228,277.941v1.607a6.529,6.529,0,0,1-6.529,6.529H124.016a2.369,2.369,0,0,1-2.227-3.171,2.369,2.369,0,0,0,2.227,1.564H135.7A6.529,6.529,0,0,0,142.228,277.941Z" transform="translate(-117.177 -268.66)" fill="#ffcbbe"/>
            <path id="Trazado_662980" data-name="Trazado 662980" d="M83.582,145.95a2.367,2.367,0,0,0,2.21,3.214h17.437V147.47H85.792A2.367,2.367,0,0,1,83.582,145.95Z" transform="translate(-81.641 -145.95)" fill="#ffcbbe"/>
            <path id="Trazado_662981" data-name="Trazado 662981" d="M58.208,213.278a2.367,2.367,0,0,0,2.21,3.215h10.9a.847.847,0,0,0,0-1.695h-10.9a2.367,2.367,0,0,1-2.21-1.52Z" transform="translate(-58.051 -208.544)" fill="#ffcbbe"/>
            <path id="Trazado_662982" data-name="Trazado 662982" d="M73.208,280.606a2.367,2.367,0,0,0,2.21,3.214h9.847a.847.847,0,1,0,0-1.695H75.418A2.367,2.367,0,0,1,73.208,280.606Z" transform="translate(-71.996 -271.138)" fill="#ffcbbe"/>
          </g>
          <path id="Trazado_662983" data-name="Trazado 662983" d="M160.369,30.42h-5.991a1.174,1.174,0,0,1-1.174-1.174V1.174A1.174,1.174,0,0,1,154.378,0h5.991a1.174,1.174,0,0,1,1.174,1.174V29.246a1.174,1.174,0,0,1-1.174,1.174Z" transform="translate(-146.513 0)" fill="#e7ecf6"/>
          <g id="Grupo_1012694" data-name="Grupo 1012694" transform="translate(8.056 1.544)">
            <path id="Trazado_662984" data-name="Trazado 662984" d="M177.316,27.243h-3.789a.91.91,0,0,1-.91-.91V22.87a.91.91,0,0,1,.91-.91h3.789a.91.91,0,0,1,.91.91v3.463A.91.91,0,0,1,177.316,27.243Z" transform="translate(-172.617 -21.96)" fill="#dd5790"/>
            <path id="Trazado_662985" data-name="Trazado 662985" d="M177.316,130.031h-3.789a.91.91,0,0,1-.91-.91v-3.463a.91.91,0,0,1,.91-.91h3.789a.91.91,0,0,1,.91.91v3.463A.91.91,0,0,1,177.316,130.031Z" transform="translate(-172.617 -117.521)" fill="#ffd064"/>
            <path id="Trazado_662986" data-name="Trazado 662986" d="M177.316,229.931h-3.789a.91.91,0,0,1-.91-.91v-3.463a.91.91,0,0,1,.91-.91h3.789a.91.91,0,0,1,.91.91v3.463A.91.91,0,0,1,177.316,229.931Z" transform="translate(-172.617 -210.396)" fill="#75cef9"/>
            <path id="Trazado_662987" data-name="Trazado 662987" d="M177.316,340.822h-3.789a.91.91,0,0,1-.91-.91v-3.463a.91.91,0,0,1,.91-.91h3.789a.91.91,0,0,1,.91.91v3.463A.91.91,0,0,1,177.316,340.822Z" transform="translate(-172.617 -313.49)" fill="#95d6a4"/>
          </g>
          <path id="Trazado_662988" data-name="Trazado 662988" d="M188.965,113.339H180.3a2.988,2.988,0,1,0,0,5.975h3.75a5.011,5.011,0,1,0,4.917-5.975Z" transform="translate(-168.925 -105.37)" fill="#ffddce"/>
          <path id="Trazado_662989" data-name="Trazado 662989" d="M193.794,129.67a5.012,5.012,0,0,1-9.748-.373H180.3a2.987,2.987,0,0,1-1.985-5.221,3.086,3.086,0,0,0-.022.363,2.986,2.986,0,0,0,2.988,2.988h3.75a5.011,5.011,0,0,0,8.766,2.243Z" transform="translate(-168.924 -115.353)" fill="#ffcbbe"/>
        </g>
      </g>
    </g>
  </g>
</svg>
