<svg xmlns="http://www.w3.org/2000/svg" xmlns:xlink="http://www.w3.org/1999/xlink" width="65" height="65" viewBox="0 0 65 65">
  <defs>
    <filter id="Elipse_7668" x="0" y="0" width="65" height="65" filterUnits="userSpaceOnUse">
      <feOffset dy="3" input="SourceAlpha"/>
      <feGaussianBlur stdDeviation="3" result="blur"/>
      <feFlood flood-opacity="0.161"/>
      <feComposite operator="in" in2="blur"/>
      <feComposite in="SourceGraphic"/>
    </filter>
  </defs>
  <g id="Grupo_1013334" data-name="Grupo 1013334" transform="translate(-801 -4750.719)">
    <g id="Grupo_1004670" data-name="Grupo 1004670" transform="translate(810 4752.554)">
      <g transform="matrix(1, 0, 0, 1, -9, -1.83)" filter="url(#Elipse_7668)">
        <circle id="Elipse_7668-2" data-name="Elipse 7668" cx="23.5" cy="23.5" r="23.5" transform="translate(9 6)" fill="#ffd3c3"/>
      </g>
      <g id="hoja" transform="translate(7.167 11.332)">
        <g id="Grupo_1012690" data-name="Grupo 1012690" transform="translate(21.515 21.515)">
          <path id="Trazado_662951" data-name="Trazado 662951" d="M310.245,309.475l-13-13-.77.77,13,13a.544.544,0,1,0,.77-.77Z" transform="translate(-296.472 -296.472)" fill="#d8efa7"/>
        </g>
        <path id="Trazado_662952" data-name="Trazado 662952" d="M54.315,28.556l.319-.37.42-.158h0a1.552,1.552,0,0,0,.115-.362c.686-3.7,2.455-16.376-4.044-22.875A15.146,15.146,0,0,0,44.836,1.16l-.368.3-.6-.427-.1-.182A30.326,30.326,0,0,0,36.364,0l-.25.161L35.347.131,35.273.015C33.808.051,32.449.163,31.281.3L28.313,2.829l.475,7.271,1.9,10.55,1.815,2.96,3.106,3.225L42.15,28.8l5.844.806a46.007,46.007,0,0,0,5.93-.691,1.555,1.555,0,0,0,.361-.115Z" transform="translate(-26.258 -0.002)" fill="#c5e97d"/>
        <g id="Grupo_1012692" data-name="Grupo 1012692" transform="translate(0 0)">
          <path id="Trazado_662953" data-name="Trazado 662953" d="M9.406,27.711C2.885,21.19,4.223,8.785,5.023,4.064c-1.537.176-2.746.392-3.433.528h0l.03.4-.467.431-.33-.058h0a45.521,45.521,0,0,0-.809,7.421l.143.111.023.844L0,13.874a30.34,30.34,0,0,0,.851,7.392l.471.137.18.753-.343.2A15.144,15.144,0,0,0,4.79,28.636a12.677,12.677,0,0,0,1.018.911l2.2.316-.616.781c6.706,4,16.652,2.69,20.09,2.069-5.722.306-13.405-.335-18.073-5Z" transform="translate(-0.001 -3.769)" fill="#b1e254"/>
          <g id="Grupo_1012691" data-name="Grupo 1012691" transform="translate(8.593)">
            <path id="Trazado_662954" data-name="Trazado 662954" d="M118.829.013l-.421,9.1a.544.544,0,0,0,.519.569h.026a.544.544,0,0,0,.543-.519L119.92,0c-.369,0-.734,0-1.091.013Z" transform="translate(-118.408 0)" fill="#d8efa7"/>
            <path id="Trazado_662955" data-name="Trazado 662955" d="M231.444,11.741l-.76,16.408a.544.544,0,0,0,.519.569h.026a.544.544,0,0,0,.543-.519l.749-16.152q-.534-.167-1.077-.306Z" transform="translate(-222.536 -10.889)" fill="#d8efa7"/>
            <path id="Trazado_662956" data-name="Trazado 662956" d="M343.887,80.648l-.036.7-.889,18.852a.544.544,0,0,0,.518.569h.026a.544.544,0,0,0,.543-.519l.855-18.142A13.785,13.785,0,0,0,343.887,80.648Z" transform="translate(-326.666 -74.795)" fill="#d8efa7"/>
          </g>
          <path id="Trazado_662957" data-name="Trazado 662957" d="M329.191,53.669a2.845,2.845,0,0,1-5.691,0c0-1.142,1.5-3.036,2.324-3.986a.689.689,0,0,1,1.043,0C327.688,50.634,329.191,52.527,329.191,53.669Z" transform="translate(-300.024 -45.857)" fill="#b3e5ee"/>
          <path id="Trazado_662958" data-name="Trazado 662958" d="M324.912,53.668c0-1.061,1.3-2.771,2.139-3.77l-.184-.216a.689.689,0,0,0-1.043,0c-.821.95-2.324,2.844-2.324,3.986a2.847,2.847,0,0,0,3.551,2.757A2.846,2.846,0,0,1,324.912,53.668Z" transform="translate(-300.024 -45.856)" fill="#86d7e5"/>
          <path id="Trazado_662959" data-name="Trazado 662959" d="M143.571,342.961l-16.161.732v1.119l16.212-.764a.544.544,0,1,0-.051-1.087Z" transform="translate(-118.164 -318.072)" fill="#d8efa7"/>
          <path id="Trazado_662960" data-name="Trazado 662960" d="M81.5,353.073l5.729-.27a15.557,15.557,0,0,1-1.732-1.034l-5.51.25A13.745,13.745,0,0,0,81.5,353.073Z" transform="translate(-74.182 -326.241)" fill="#c5e97d"/>
          <path id="Trazado_662961" data-name="Trazado 662961" d="M73.486,339.078a4.45,4.45,0,0,1-8.9,0c0-1.786,2.35-4.748,3.634-6.234a1.078,1.078,0,0,1,1.632,0C71.137,334.33,73.486,337.292,73.486,339.078Z" transform="translate(-59.899 -308.343)" fill="#b3e5ee"/>
          <path id="Trazado_662962" data-name="Trazado 662962" d="M66.89,338.785c0-1.589,1.86-4.109,3.175-5.692l-.213-.248a1.078,1.078,0,0,0-1.632,0c-1.285,1.486-3.634,4.448-3.634,6.234a4.453,4.453,0,0,0,6.148,4.115A4.451,4.451,0,0,1,66.89,338.785Z" transform="translate(-59.899 -308.344)" fill="#86d7e5"/>
        </g>
        <path id="Trazado_662963" data-name="Trazado 662963" d="M42.338,31.77v1.54L67.292,58.26a1.555,1.555,0,0,0,.77-.77Z" transform="translate(-39.265 -29.464)" fill="#d8efa7"/>
        <path id="Trazado_662964" data-name="Trazado 662964" d="M12.091,11.337l-.033.006a.925.925,0,0,0-.727.727l-.007.038,3.62,3.62c.033-.492.073-.968.117-1.423Z" transform="translate(-10.501 -10.514)" fill="#c5e97d"/>
        <path id="Trazado_662965" data-name="Trazado 662965" d="M48.377,118.41l-6.039.28v1.089l6.09-.282a.544.544,0,0,0-.051-1.087Z" transform="translate(-39.265 -109.817)" fill="#d8efa7"/>
        <path id="Trazado_662966" data-name="Trazado 662966" d="M4.342,121.464l-4.329.2Q0,122.2,0,122.754l4.372-.2q-.023-.549-.03-1.088Z" transform="translate(0 -112.649)" fill="#c5e97d"/>
        <path id="Trazado_662967" data-name="Trazado 662967" d="M56.46,230.687l-14.192.653v1.1l14.243-.665a.544.544,0,0,0-.051-1.087Z" transform="translate(-39.2 -213.945)" fill="#d8efa7"/>
        <path id="Trazado_662968" data-name="Trazado 662968" d="M16.436,238.11l-4.71.217q.14.548.309,1.086l4.772-.223Q16.607,238.656,16.436,238.11Z" transform="translate(-10.875 -220.83)" fill="#c5e97d"/>
        <path id="Trazado_662969" data-name="Trazado 662969" d="M145.393,138.149a1.922,1.922,0,0,1-3.843,0c0-.771,1.015-2.05,1.569-2.692a.466.466,0,0,1,.7,0C144.379,136.1,145.393,137.378,145.393,138.149Z" transform="translate(-131.278 -125.477)" fill="#b3e5ee"/>
        <path id="Trazado_662970" data-name="Trazado 662970" d="M142.589,138.012a5.292,5.292,0,0,1,1.345-2.426l-.11-.129a.466.466,0,0,0-.7,0c-.555.642-1.569,1.921-1.569,2.692a1.922,1.922,0,0,0,2.683,1.764A1.922,1.922,0,0,1,142.589,138.012Z" transform="translate(-131.278 -125.477)" fill="#86d7e5"/>
      </g>
    </g>
  </g>
</svg>
