<svg xmlns="http://www.w3.org/2000/svg" xmlns:xlink="http://www.w3.org/1999/xlink" width="103" height="103" viewBox="0 0 103 103">
  <defs>
    <filter id="Elipse_7712" x="0" y="0" width="103" height="103" filterUnits="userSpaceOnUse">
      <feOffset dy="3" input="SourceAlpha"/>
      <feGaussianBlur stdDeviation="3" result="blur"/>
      <feFlood flood-opacity="0.161"/>
      <feComposite operator="in" in2="blur"/>
      <feComposite in="SourceGraphic"/>
    </filter>
    <clipPath id="clip-path">
      <circle id="Elipse_7717" data-name="Elipse 7717" cx="34.5" cy="34.5" r="34.5" transform="translate(0 -0.072)" fill="#b3f1ff"/>
    </clipPath>
  </defs>
  <g id="Grupo_1013333" data-name="Grupo 1013333" transform="translate(-381 -2486)">
    <g transform="matrix(1, 0, 0, 1, 381, 2486)" filter="url(#Elipse_7712)">
      <circle id="Elipse_7712-2" data-name="Elipse 7712" cx="42.5" cy="42.5" r="42.5" transform="translate(9 6)" fill="#ffd3c3"/>
    </g>
    <g id="Enmascarar_grupo_868570" data-name="Enmascarar grupo 868570" transform="translate(398 2500.072)" clip-path="url(#clip-path)">
      <circle id="Elipse_7715" data-name="Elipse 7715" cx="34.5" cy="34.5" r="34.5" transform="translate(0 -0.072)" fill="#b3f1ff"/>
      <g id="barro" transform="translate(0 5.828)">
        <g id="Grupo_1012842" data-name="Grupo 1012842" transform="translate(2.14 23.352)">
          <ellipse id="Elipse_7723" data-name="Elipse 7723" cx="8.923" cy="3.264" rx="8.923" ry="3.264" transform="translate(23.05 43.981)" fill="#e2e0e1"/>
          <path id="Trazado_663205" data-name="Trazado 663205" d="M65.508,192.5s-7.149-1.291,7.443-7.282c3.388-1.391,3.648-3.314,1.8-5.283l.164-.02a6.368,6.368,0,0,0,4.763-3.151l1.142-1.987a6.369,6.369,0,0,0-3.033-9.036l-16.076-6.828a6.369,6.369,0,0,0-5.8.42l-3.419,5.3c.326-3.51-.173-6.778-3.713-7.27-6.493-.9-26.024-.537-35.063,1.78-3.643.934-.187,18.309,1.108,22.367,0,0,.236.913,2.13,1.365-2.7,3.575-4.11,8.174.885,12.426a6.877,6.877,0,0,0,1.446.914l-.786,1.215a2.549,2.549,0,0,0,.8,3.555l3.124,1.922a2.548,2.548,0,0,0,2.624.029l4-2.34a2.549,2.549,0,0,0,1.25-2.441,89.605,89.605,0,0,0,12.381-.594c4.664-.527,24.942-.623,19.041,5.186s6.979,5.951,14.954,1.788c3.868-2.019,7.583-4.462,7.511-6.975C84.109,194.8,77.367,191.883,65.508,192.5Z" transform="translate(-12.098 -156.909)" fill="#e2e0e1"/>
        </g>
        <ellipse id="Elipse_7724" data-name="Elipse 7724" cx="8.826" cy="3.228" rx="8.826" ry="3.228" transform="translate(22.801 64.357)" fill="#a0763f"/>
        <ellipse id="Elipse_7725" data-name="Elipse 7725" cx="8.773" cy="3.003" rx="8.773" ry="3.003" transform="translate(22.801 63.903)" fill="#b28752"/>
        <path id="Trazado_663206" data-name="Trazado 663206" d="M22.126,229.428c-2.739,1.95-14.195,10.58-5.35,18.109,3.406,2.9,13.582,3.476,24.573,2.235,4.613-.521,24.673-.616,18.835,5.13s6.9,5.887,14.793,1.769c3.826-2,7.5-4.414,7.43-6.9-.078-2.736-6.747-5.618-18.479-5,0,0-7.072-1.277,7.363-7.2C85.917,231.562,41.65,215.528,22.126,229.428Z" transform="translate(-11.095 -188.707)" fill="#a0763f"/>
        <path id="Trazado_663207" data-name="Trazado 663207" d="M74.823,254.963c3.826-2,7.938-4.579,7.3-6-1.068-2.358-8.173-4.678-18.173-4.2-2.86.137-7.526-3.907,7.192-8.912a4.085,4.085,0,0,0,2.809-2.323c-3.3-6.815-35.83-15.478-51.8-4.106-1.977,1.408-8.5,6.3-8.642,11.74a8.84,8.84,0,0,0,3.121,4.66c3.406,2.9,13.582,3.477,24.573,2.235,4.289-.484,22.759-.2,20.532,4.406-.931,1.642-.333,1.258-1.525,2.432a5.775,5.775,0,0,0-1.3,1.74C60.705,258.706,69.059,257.972,74.823,254.963Z" transform="translate(-11.113 -188.707)" fill="#b28752"/>
        <path id="Trazado_663208" data-name="Trazado 663208" d="M363.505,75.969l.275-.482-.829-.5,1.392.2.2-.266a11.848,11.848,0,0,0,1.486-2.479.671.671,0,0,0-.189-.662c-.067-.089-.16-.212-.265-.348l-.014-.019h0c.434.037.974.084,1.177-.357a12.237,12.237,0,0,0,.864-2.4l.082-.368-.623-.441.973.113.136-.456c.049-.163,1.14-3.907-.5-5.857v-.018l-.166-.164-.164-.166h-.017c-1.95-1.636-5.694-.545-5.857-.5l-.456.136.113.973-.441-.623-.368.082a12.26,12.26,0,0,0-2.4.864c-.44.2-.394.744-.357,1.178h0l-.018-.014-.348-.265a.672.672,0,0,0-.662-.19,11.858,11.858,0,0,0-2.48,1.486l-.266.2.2,1.392-.5-.829-.482.274c-2.931,1.669-3.562,3.475-3.587,3.551l-.063.189.931,2.524L348.73,70.69l-.324.421c-1.184,1.541-1.058,4.429-1.049,4.608l.185,4.91.029.772.772.029,4.91.185c.179.009,3.067.135,4.608-1.049l.421-.324-1.041-1.554,2.524.931.189-.063a4.333,4.333,0,0,0,1.2-.718A9.8,9.8,0,0,0,363.505,75.969Z" transform="translate(-285.902 -54.12)" fill="#469331"/>
        <path id="Trazado_663209" data-name="Trazado 663209" d="M370.4,67.453l2.138.248s1.136-3.8-.519-5.476c-1.671-1.655-5.476-.519-5.476-.519l.248,2.138a.146.146,0,0,1-.265.1l-1.175-1.661a11.8,11.8,0,0,0-2.287.825,4.663,4.663,0,0,0,.092,1.6.144.144,0,0,1-.232.135c-.456-.355-1.294-1-1.31-1a11.9,11.9,0,0,0-2.312,1.4l.44,3.121a.146.146,0,0,1-.27.1l-1.28-2.137c-2.776,1.58-3.33,3.238-3.33,3.238l1.311,3.554a.146.146,0,0,1-.219.172l-2.191-1.467c-1.082,1.409-.932,4.237-.932,4.237l.194,5.161,5.161.194s2.828.15,4.237-.932l-1.467-2.191a.146.146,0,0,1,.172-.219l3.554,1.311s1.657-.554,3.238-3.33l-2.137-1.28a.146.146,0,0,1,.1-.27l3.121.44a11.893,11.893,0,0,0,1.4-2.312c0-.015-.645-.853-1-1.31a.144.144,0,0,1,.135-.232,4.657,4.657,0,0,0,1.6.093,11.789,11.789,0,0,0,.825-2.287L370.3,67.718A.146.146,0,0,1,370.4,67.453Z" transform="translate(-290.407 -54.883)" fill="#51af3a"/>
        <path id="Trazado_663210" data-name="Trazado 663210" d="M387.6,67.453l2.138.248s1.136-3.8-.519-5.476c-1.671-1.655-5.476-.519-5.476-.519l.248,2.138a.146.146,0,0,1-.265.1l-1.175-1.661a11.8,11.8,0,0,0-2.287.825,4.663,4.663,0,0,0,.092,1.6.144.144,0,0,1-.232.135c-.456-.355-1.294-1-1.31-1a11.9,11.9,0,0,0-2.312,1.4l.44,3.121a.146.146,0,0,1-.27.1l-1.28-2.137a11.077,11.077,0,0,0-1.56,1.064,8.6,8.6,0,0,0,2.329,7.469c.068.068.137.134.207.2h0l.011.01.011.01h0A8.722,8.722,0,0,0,384.515,77c.2-.284.4-.6.6-.954l-2.137-1.28a.146.146,0,0,1,.1-.27l3.121.44a11.893,11.893,0,0,0,1.4-2.312c0-.015-.645-.853-1-1.31a.144.144,0,0,1,.135-.232,4.657,4.657,0,0,0,1.6.093,11.791,11.791,0,0,0,.825-2.287l-1.661-1.175A.146.146,0,0,1,387.6,67.453Z" transform="translate(-307.606 -54.883)" fill="#81c149"/>
        <g id="Grupo_1012843" data-name="Grupo 1012843" transform="translate(41.291)">
          <path id="Trazado_663211" data-name="Trazado 663211" d="M362.328,73.892s-17.411,12.55-19.062,20.655a.479.479,0,0,0,.347.555l.67-.234a.481.481,0,0,0,.584-.322C345.435,92.731,345.978,89.8,362.328,73.892Z" transform="translate(-323.824 -65.226)" fill="#469331"/>
          <path id="Trazado_663212" data-name="Trazado 663212" d="M237.024,40.509,236.815,40l.887-.383-1.406.011-.165-.29a11.866,11.866,0,0,1-1.146-2.654.67.67,0,0,1,.275-.631c.078-.08.187-.189.309-.31l.017-.017h0c-.435-.02-.977-.045-1.12-.509a12.243,12.243,0,0,1-.539-2.495l-.033-.376.676-.355-.98-.016-.075-.47c-.027-.168-.614-4.024,1.265-5.74l0-.018.186-.141.185-.143.017,0c2.149-1.364,5.716.212,5.871.282l.434.195-.24.95.519-.559.354.13a12.253,12.253,0,0,1,2.267,1.173c.41.261.292.79.2,1.214h0l.02-.011.38-.217a.673.673,0,0,1,.681-.1,11.856,11.856,0,0,1,2.262,1.8l.237.235-.379,1.354.6-.756.442.336c2.685,2.041,3.072,3.915,3.087,3.993l.038.2-1.256,2.379,1.678-.826.265.46c.97,1.684.465,4.53.432,4.706l-.831,4.843L252.1,48l-.77-.073-4.891-.465c-.179-.015-3.057-.271-4.429-1.648l-.375-.376,1.237-1.4-2.625.589-.179-.088a4.333,4.333,0,0,1-1.094-.87A9.819,9.819,0,0,1,237.024,40.509Z" transform="translate(-233.408 -24.907)" fill="#469331"/>
        </g>
        <path id="Trazado_663213" data-name="Trazado 663213" d="M236.919,31.522l-2.152-.036s-.623-3.921,1.238-5.359c1.875-1.42,5.5.208,5.5.208l-.528,2.086a.146.146,0,0,0,.249.135l1.384-1.491a11.789,11.789,0,0,1,2.158,1.119,4.662,4.662,0,0,1-.3,1.573.144.144,0,0,0,.212.165c.5-.292,1.416-.825,1.43-.818A11.9,11.9,0,0,1,248.21,30.8l-.848,3.035a.146.146,0,0,0,.255.131l1.551-1.949c2.543,1.933,2.874,3.649,2.874,3.649l-1.768,3.35a.146.146,0,0,0,.194.2l2.365-1.165c.887,1.539.365,4.323.365,4.323l-.874,5.09-5.141-.489s-2.823-.225-4.077-1.484l1.743-1.978a.146.146,0,0,0-.142-.24l-3.7.83s-1.57-.768-2.77-3.728l2.287-.987a.146.146,0,0,0-.059-.281l-3.151.024a11.9,11.9,0,0,1-1.082-2.477c0-.016.752-.761,1.164-1.166a.144.144,0,0,0-.1-.247,4.669,4.669,0,0,1-1.6-.119,11.782,11.782,0,0,1-.516-2.376l1.8-.945A.147.147,0,0,0,236.919,31.522Z" transform="translate(-193.154 -25.433)" fill="#51af3a"/>
        <path id="Trazado_663214" data-name="Trazado 663214" d="M236.919,31.522l-2.152-.036s-.623-3.921,1.238-5.359c1.875-1.42,5.5.208,5.5.208l-.528,2.086a.146.146,0,0,0,.249.135l1.384-1.491a11.789,11.789,0,0,1,2.158,1.119,4.662,4.662,0,0,1-.3,1.573.144.144,0,0,0,.212.165c.5-.292,1.416-.825,1.43-.818A11.9,11.9,0,0,1,248.21,30.8l-.848,3.035a.146.146,0,0,0,.255.131l1.551-1.949a11.025,11.025,0,0,1,1.406,1.26,8.6,8.6,0,0,1-3.295,7.1c-.076.058-.154.114-.231.169h0l-.012.008-.012.009h0a8.722,8.722,0,0,1-8.311.841c-.16-.309-.319-.649-.471-1.025l2.287-.987a.146.146,0,0,0-.059-.281l-3.151.024a11.9,11.9,0,0,1-1.082-2.477c0-.016.752-.761,1.164-1.166a.144.144,0,0,0-.1-.247,4.67,4.67,0,0,1-1.6-.119,11.782,11.782,0,0,1-.515-2.376l1.8-.945A.147.147,0,0,0,236.919,31.522Z" transform="translate(-193.154 -25.433)" fill="#81c149"/>
        <path id="Trazado_663215" data-name="Trazado 663215" d="M251.406,37.6s15.6,14.739,16.168,22.991a.479.479,0,0,1-.417.5l-.633-.32a.481.481,0,0,1-.536-.4C265.665,58.5,265.514,55.528,251.406,37.6Z" transform="translate(-206.931 -35.354)" fill="#469331"/>
        <path id="Trazado_663216" data-name="Trazado 663216" d="M81.5,233.589c.007-.018.014-.036.021-.055-3.3-6.815-35.83-15.478-51.8-4.106a27.414,27.414,0,0,0-7.013,6.957,11.774,11.774,0,0,0,5.612.345c6.376-.725,12.543-3.364,13.2-8,0,0,11.3,1.094,14.843-.99a6.68,6.68,0,0,0,.321,2.453s7.578,5.508,10.234,5.189l13.912-1.67A6.241,6.241,0,0,0,81.5,233.589Z" transform="translate(-18.69 -188.707)" fill="#a3794b"/>
        <path id="Trazado_663217" data-name="Trazado 663217" d="M64.982,151.511l-15.9-6.754a6.3,6.3,0,0,0-5.736.416l-3.382,5.238c.322-3.473-.172-6.7-3.673-7.192-6.423-.894-25.743-.532-34.685,1.761-3.6.924-.185,18.112,1.1,22.126,0,0,.554,2.173,6.93,1.448s12.543-3.364,13.2-8c0,0,11.3,1.094,14.843-.99a6.681,6.681,0,0,0,.321,2.453s7.578,5.508,10.234,5.189l13.912-1.67a6.3,6.3,0,0,0,4.712-3.117l1.129-1.965A6.3,6.3,0,0,0,64.982,151.511Z" transform="translate(0 -121.918)" fill="#ce9849"/>
        <path id="Trazado_663218" data-name="Trazado 663218" d="M36.288,143.22c-6.423-.894-25.743-.532-34.685,1.761-2.153.552-1.8,6.906-.893,12.789.492.644,2.167,1.9,7.61,1.281,7.181-.817,14.127-3.789,14.869-9.015,0,0,13.023,1.261,16.854-1.2C40.06,146.012,39.251,143.632,36.288,143.22Z" transform="translate(0 -121.919)" fill="#e5b053"/>
        <path id="Trazado_663219" data-name="Trazado 663219" d="M82.063,102.75A5.071,5.071,0,0,0,78.1,98.11l-3.414-.758a5.072,5.072,0,0,0-1.9-.058c-1.709.27-3.749,2.646-3.946,2.971-.263.435-4.978.646-5.75,1.725a2.857,2.857,0,0,0-.216.365,5.033,5.033,0,0,0,1.648,6.373l4.254,2.982a5.071,5.071,0,0,0,5.571.165l5.38-3.314a5.071,5.071,0,0,0,2.4-4.628Z" transform="translate(-51.321 -84.437)" fill="#c9904c"/>
        <path id="Trazado_663220" data-name="Trazado 663220" d="M76.689,92.677a5.076,5.076,0,0,0-1.9-.058c-1.709.27-3.749,2.646-3.946,2.971-.263.435-4.978.646-5.75,1.725a2.836,2.836,0,0,0-.216.365,5.033,5.033,0,0,0,1.648,6.373l4.254,2.982a5.071,5.071,0,0,0,5.571.165l5.38-3.314a5.071,5.071,0,0,0,2.4-4.628l-.073-1.182a5.071,5.071,0,0,0-3.962-4.64Z" transform="translate(-52.969 -80.588)" fill="#dda254"/>
        <path id="Trazado_663221" data-name="Trazado 663221" d="M81.824,101.4l5.849-3.6a5.069,5.069,0,0,0-3.933-4.366l-3.414-.758a5.076,5.076,0,0,0-1.9-.058c-1.709.27-3.749,2.646-3.946,2.971-.26.429-4.849.641-5.714,1.682l5.58,3.911A6.8,6.8,0,0,0,81.824,101.4Z" transform="translate(-56.606 -80.588)" fill="#f2c070"/>
        <path id="Trazado_663222" data-name="Trazado 663222" d="M225.9,165.761l13.912-1.67a6.3,6.3,0,0,0,4.712-3.117l.472-.821a6.266,6.266,0,0,0-2.343-1.724l-15.9-6.754a6.3,6.3,0,0,0-5.736.416l-4.929,7.634a8.677,8.677,0,0,0-.228.985C217.046,161.557,223.492,166.05,225.9,165.761Z" transform="translate(-177.669 -128.836)" fill="#e5b053"/>
        <path id="Trazado_663223" data-name="Trazado 663223" d="M209.393,103.225l-.784-2.979A2.521,2.521,0,0,0,206.97,98.5c2.213-2.852,1.09-6.982-2.564-8.577l-8.223-3.589a6.982,6.982,0,0,0-6,.195l-6.058,3.2A5.751,5.751,0,0,0,181.2,93.31L180.1,97.452c-.913,3.459,1.827,6.885,5.76,7.2l10.522.85a7.048,7.048,0,0,0,1.311-.018,2.509,2.509,0,0,0,.891.941l3.09,1.9a2.522,2.522,0,0,0,2.6.029l3.955-2.315A2.522,2.522,0,0,0,209.393,103.225Z" transform="translate(-148.097 -74.986)" fill="#c9904c"/>
        <path id="Trazado_663224" data-name="Trazado 663224" d="M209.775,98.549l-.784-2.979a2.521,2.521,0,0,0-1.638-1.749c2.213-2.852,1.09-6.983-2.564-8.577l-8.223-3.589a6.981,6.981,0,0,0-6,.195l-6.058,3.2a5.751,5.751,0,0,0-2.934,3.583l-1.094,4.142c-.913,3.459,1.827,6.885,5.76,7.2l10.522.85a7.048,7.048,0,0,0,1.311-.018,2.507,2.507,0,0,0,.891.941l3.09,1.9a2.522,2.522,0,0,0,2.6.029l3.955-2.315A2.522,2.522,0,0,0,209.775,98.549Z" transform="translate(-148.411 -71.137)" fill="#dda254"/>
        <g id="Grupo_1012844" data-name="Grupo 1012844" transform="translate(33.749 9.936)">
          <path id="Trazado_663225" data-name="Trazado 663225" d="M215.455,86.643a6.507,6.507,0,0,0-2.051-1.4l-8.222-3.589a6.981,6.981,0,0,0-6,.195l-6.058,3.2a5.956,5.956,0,0,0-2.352,2.2,6.489,6.489,0,0,0,5.456,3.662l10.522.85a6.686,6.686,0,0,0,5.131-1.736Z" transform="translate(-190.776 -81.073)" fill="#f2c070"/>
          <path id="Trazado_663226" data-name="Trazado 663226" d="M288.811,156.194a2.521,2.521,0,0,0,1.165-2.818l-.148-.563a2.515,2.515,0,0,0-1.8-.383l-4.558.76a2.522,2.522,0,0,0-1.7,1.117l-1.7,2.633c-.029.045-.054.092-.08.138l2.279,1.4a2.521,2.521,0,0,0,2.6.029Z" transform="translate(-264.2 -139.778)" fill="#f2c070"/>
        </g>
        <path id="Trazado_663227" data-name="Trazado 663227" d="M41.882,343.705l-4.558.76a2.522,2.522,0,0,0-1.7,1.117l-1.7,2.633a2.521,2.521,0,0,0,.8,3.517l3.09,1.9a2.522,2.522,0,0,0,2.6.029l3.955-2.315a2.521,2.521,0,0,0,1.165-2.818l-.784-2.979a2.521,2.521,0,0,0-2.024-1.845h0A2.519,2.519,0,0,0,41.882,343.705Z" transform="translate(-27.585 -287.28)" fill="#dda254"/>
        <path id="Trazado_663228" data-name="Trazado 663228" d="M44.181,347.468a2.521,2.521,0,0,0,1.165-2.818l-.148-.563a2.516,2.516,0,0,0-1.8-.383l-4.558.759a2.523,2.523,0,0,0-1.7,1.117l-1.7,2.633c-.029.045-.054.092-.08.138l2.279,1.4a2.521,2.521,0,0,0,2.6.029Z" transform="translate(-29.097 -287.279)" fill="#f2c070"/>
        <path id="Trazado_663229" data-name="Trazado 663229" d="M26.06,174.69a1.047,1.047,0,0,0-.283-1.182,4.182,4.182,0,0,0-5-.667c-2.947,1.7-3.466,3.132-3.551,3.328l-.018,0,.012.011-.006.015.018,0c.164.136,1.271,1.182,4.668,1.375A4.174,4.174,0,0,0,26.06,174.69Z" transform="translate(-14.16 -146.202)" fill="#51af3a"/>
        <path id="Trazado_663230" data-name="Trazado 663230" d="M33.039,181.143a15.718,15.718,0,0,0-7.3,1.775.046.046,0,0,0,.039.084c1.341-.522,4.754-1.717,7.361-1.485A1.049,1.049,0,0,0,33.039,181.143Z" transform="translate(-21.167 -153.501)" fill="#469331"/>
        <g id="Grupo_1012845" data-name="Grupo 1012845" transform="translate(7.51 49.33)">
          <ellipse id="Elipse_7726" data-name="Elipse 7726" cx="0.779" cy="2.668" rx="0.779" ry="2.668" transform="translate(16.991 18.182) rotate(-103.728)" fill="#cea06e"/>
          <ellipse id="Elipse_7727" data-name="Elipse 7727" cx="0.495" cy="1.117" rx="0.495" ry="1.117" transform="translate(26.632 19.325) rotate(-89.719)" fill="#cea06e"/>
          <path id="Trazado_663231" data-name="Trazado 663231" d="M202.146,325.627c0-.654-1.814-1.183-4.051-1.183s-4.051.53-4.051,1.183c0,.289.355.553.943.759a15.745,15.745,0,0,0-1.627-.082c-2.67,0-4.835.632-4.835,1.412s2.165,1.412,4.835,1.412,4.835-.632,4.835-1.412c0-.369-.485-.7-1.279-.957.373.033.769.051,1.179.051C200.332,326.811,202.146,326.281,202.146,325.627Z" transform="translate(-162.684 -320.785)" fill="#cea06e"/>
          <ellipse id="Elipse_7728" data-name="Elipse 7728" cx="1.412" cy="4.834" rx="1.412" ry="4.834" transform="translate(51.455 11.068) rotate(-79.309)" fill="#cea06e"/>
          <path id="Trazado_663232" data-name="Trazado 663232" d="M52.121,305.172c0-.78-2.165-1.412-4.835-1.412s-4.835.632-4.835,1.412c0,.623,1.381,1.151,3.3,1.339-.456.155-.733.356-.733.576,0,.488,1.353.883,3.023.883s3.023-.4,3.023-.883c0-.293-.489-.551-1.239-.712C51.2,306.126,52.121,305.681,52.121,305.172Z" transform="translate(-42.452 -303.76)" fill="#cea06e"/>
        </g>
      </g>
    </g>
  </g>
</svg>
