<svg xmlns="http://www.w3.org/2000/svg" xmlns:xlink="http://www.w3.org/1999/xlink" width="103" height="103" viewBox="0 0 103 103">
  <defs>
    <filter id="Elipse_7742" x="0" y="0" width="103" height="103" filterUnits="userSpaceOnUse">
      <feOffset dy="3" input="SourceAlpha"/>
      <feGaussianBlur stdDeviation="3" result="blur"/>
      <feFlood flood-opacity="0.161"/>
      <feComposite operator="in" in2="blur"/>
      <feComposite in="SourceGraphic"/>
    </filter>
  </defs>
  <g id="Grupo_1013333" data-name="Grupo 1013333" transform="translate(1554 7502)">
    <g transform="matrix(1, 0, 0, 1, -1554, -7502)" filter="url(#Elipse_7742)">
      <circle id="Elipse_7742-2" data-name="Elipse 7742" cx="42.5" cy="42.5" r="42.5" transform="translate(9 6)" fill="#ffd3c3"/>
    </g>
    <g id="aspersor" transform="translate(-1535.5 -7487.446)">
      <path id="Trazado_664005" data-name="Trazado 664005" d="M66,31.7q0,.325-.008.65A30.471,30.471,0,0,1,64.256,41.9l-2.041.259L31.8,46.019,4.186,42.235,1.744,41.9A30.6,30.6,0,0,1,0,31.7C0,14.2,14.775,0,33,0S66,14.2,66,31.7Z" transform="translate(0)" fill="#b3f1ff"/>
      <g id="Grupo_1013310" data-name="Grupo 1013310" transform="translate(0.279 31.711)">
        <path id="Trazado_664006" data-name="Trazado 664006" d="M11,252.947c-.2.147-4.4,3.346-4.577,10.805l-2.815-.4a37.791,37.791,0,0,1-1.732-7.609,11.9,11.9,0,0,1,2.447,2.271,15.153,15.153,0,0,1,4.934-7.473A1.486,1.486,0,0,1,11,252.947Z" transform="translate(-1.88 -250.259)" fill="#3ec3a4"/>
        <path id="Trazado_664007" data-name="Trazado 664007" d="M457.308,261.25a37.908,37.908,0,0,1-2,11.458l-2.353.311c-.153-4.122-4.149-6.037-4.323-6.118a1.486,1.486,0,0,1,1.241-2.7,11.978,11.978,0,0,1,3.96,3.171A16.333,16.333,0,0,1,457.308,261.25Z" transform="translate(-391.597 -259.616)" fill="#3ec3a4"/>
        <path id="Trazado_664008" data-name="Trazado 664008" d="M76.791,263.9c0-4.29-4.151-6.279-4.327-6.362a1.486,1.486,0,0,1,1.242-2.7,11.974,11.974,0,0,1,3.96,3.171,15.163,15.163,0,0,1,4.934-7.473,1.486,1.486,0,0,1,1.744,2.408c-.2.15-4.579,3.483-4.579,10.959Z" transform="translate(-61.239 -250.257)" fill="#3ec3a4"/>
        <path id="Trazado_664009" data-name="Trazado 664009" d="M170.825,263.9c0-4.334-4.279-6.34-4.322-6.359a1.486,1.486,0,0,1,1.236-2.7,11.973,11.973,0,0,1,3.96,3.171,15.162,15.162,0,0,1,4.934-7.473,1.486,1.486,0,0,1,1.745,2.407c-.2.147-4.579,3.479-4.579,10.959Z" transform="translate(-145.231 -250.257)" fill="#3ec3a4"/>
        <path id="Trazado_664010" data-name="Trazado 664010" d="M264.867,263.9c0-4.334-4.279-6.34-4.322-6.359a1.486,1.486,0,1,1,1.236-2.7,11.972,11.972,0,0,1,3.96,3.171,15.163,15.163,0,0,1,4.934-7.473,1.486,1.486,0,0,1,1.744,2.408c-.2.15-4.579,3.483-4.579,10.959Z" transform="translate(-227.556 -250.257)" fill="#3ec3a4"/>
        <path id="Trazado_664011" data-name="Trazado 664011" d="M358.919,263.9c0-4.29-4.151-6.279-4.327-6.362a1.486,1.486,0,0,1,1.242-2.7,11.974,11.974,0,0,1,3.96,3.171,15.163,15.163,0,0,1,4.934-7.473,1.486,1.486,0,0,1,1.744,2.408c-.2.15-4.579,3.483-4.579,10.959Z" transform="translate(-311.537 -250.257)" fill="#3ec3a4"/>
      </g>
      <g id="Grupo_1013311" data-name="Grupo 1013311" transform="translate(1.023 11.237)">
        <path id="Trazado_664012" data-name="Trazado 664012" d="M192.679,149.454a1.483,1.483,0,0,1-.533-.1l-4.856-1.868a1.486,1.486,0,0,1,1.067-2.775l4.856,1.868a1.487,1.487,0,0,1-.534,2.874Z" transform="translate(-159.66 -134.353)" fill="#faf7f7"/>
        <path id="Trazado_664013" data-name="Trazado 664013" d="M96.378,112.416a1.483,1.483,0,0,1-.533-.1l-7.637-2.937a1.486,1.486,0,0,1,1.067-2.775l7.637,2.937a1.487,1.487,0,0,1-.534,2.874Z" transform="translate(-75.306 -101.91)" fill="#faf7f7"/>
        <path id="Trazado_664014" data-name="Trazado 664014" d="M13.222,80.433a1.483,1.483,0,0,1-.533-.1L7.832,78.466A1.486,1.486,0,0,1,8.9,75.691l4.856,1.868a1.487,1.487,0,0,1-.534,2.874Z" transform="translate(-6.879 -75.592)" fill="#faf7f7"/>
      </g>
      <g id="Grupo_1013312" data-name="Grupo 1013312" transform="translate(29.291 11.237)">
        <path id="Trazado_664015" data-name="Trazado 664015" d="M266.536,149.454A1.487,1.487,0,0,1,266,146.58l4.856-1.868a1.486,1.486,0,0,1,1.067,2.775l-4.856,1.868A1.484,1.484,0,0,1,266.536,149.454Z" transform="translate(-265.049 -134.353)" fill="#faf7f7"/>
        <path id="Trazado_664016" data-name="Trazado 664016" d="M346.91,112.416a1.487,1.487,0,0,1-.534-2.874l7.637-2.937a1.486,1.486,0,0,1,1.067,2.775l-7.637,2.937A1.487,1.487,0,0,1,346.91,112.416Z" transform="translate(-333.476 -101.91)" fill="#faf7f7"/>
        <path id="Trazado_664017" data-name="Trazado 664017" d="M445.993,80.433a1.487,1.487,0,0,1-.534-2.874l4.856-1.868a1.486,1.486,0,0,1,1.067,2.775l-4.856,1.868A1.483,1.483,0,0,1,445.993,80.433Z" transform="translate(-417.83 -75.592)" fill="#faf7f7"/>
      </g>
      <path id="Trazado_664018" data-name="Trazado 664018" d="M224.428,193.338h8.206v8.206h-8.206Z" transform="translate(-196.033 -168.499)" fill="#685e68"/>
      <path id="Trazado_664019" data-name="Trazado 664019" d="M75.508,338.33c-3.357,11.5-11.318,20.537-21.331,24.13a28.594,28.594,0,0,1-9.658,1.686q-1.283,0-2.539-.113a28.22,28.22,0,0,1-3.336-.5,29.31,29.31,0,0,1-7.863-2.894q-1.167-.629-2.283-1.36A37.372,37.372,0,0,1,13.53,338.33Z" transform="translate(-11.519 -297.254)" fill="#3ec3a4"/>
      <path id="Trazado_664020" data-name="Trazado 664020" d="M213.43,231.912h-8.866a3.081,3.081,0,0,0-3.081,3.081V248.6a3.081,3.081,0,0,0,3.081,3.081h8.866a3.081,3.081,0,0,0,3.081-3.081V234.993A3.081,3.081,0,0,0,213.43,231.912Z" transform="translate(-176.489 -203.078)" fill="#7a6d79"/>
      <path id="Trazado_664021" data-name="Trazado 664021" d="M208.517,251.679h-3.954a3.081,3.081,0,0,1-3.08-3.08V234.987a3.081,3.081,0,0,1,3.08-3.081h3.954a3.081,3.081,0,0,0-3.08,3.081V248.6A3.081,3.081,0,0,0,208.517,251.679Z" transform="translate(-175.916 -203.073)" fill="#685e68"/>
      <path id="Trazado_664022" data-name="Trazado 664022" d="M214.467,153.433H203.526a2.043,2.043,0,0,0-2.043,2.043v4.613a2.043,2.043,0,0,0,2.043,2.043h10.941a2.043,2.043,0,0,0,2.043-2.043v-4.613A2.043,2.043,0,0,0,214.467,153.433Z" transform="translate(-176.489 -133.744)" fill="#7a6d79"/>
      <path id="Trazado_664023" data-name="Trazado 664023" d="M208.074,162.139h-4.547a2.045,2.045,0,0,1-2.044-2.044v-4.614a2.043,2.043,0,0,1,2.044-2.042h4.547a2.042,2.042,0,0,0-2.042,2.042V160.1A2.043,2.043,0,0,0,208.074,162.139Z" transform="translate(-175.888 -133.749)" fill="#685e68"/>
      <g id="Grupo_1013317" data-name="Grupo 1013317" transform="translate(1.023 21.977)">
        <g id="Grupo_1013313" data-name="Grupo 1013313" transform="translate(0 2.742)">
          <path id="Trazado_664024" data-name="Trazado 664024" d="M8.367,267.935a1.487,1.487,0,0,1-.534-2.874l4.856-1.868a1.486,1.486,0,1,1,1.067,2.775L8.9,267.835A1.483,1.483,0,0,1,8.367,267.935Z" transform="translate(-6.88 -252.834)" fill="#faf7f7"/>
          <path id="Trazado_664025" data-name="Trazado 664025" d="M88.741,230.9a1.487,1.487,0,0,1-.534-2.874l7.637-2.937a1.486,1.486,0,1,1,1.067,2.775L89.274,230.8A1.486,1.486,0,0,1,88.741,230.9Z" transform="translate(-75.307 -220.39)" fill="#faf7f7"/>
          <path id="Trazado_664026" data-name="Trazado 664026" d="M187.824,198.914a1.487,1.487,0,0,1-.534-2.874l4.856-1.868a1.486,1.486,0,0,1,1.067,2.775l-4.856,1.868A1.486,1.486,0,0,1,187.824,198.914Z" transform="translate(-159.661 -194.073)" fill="#faf7f7"/>
        </g>
        <g id="Grupo_1013314" data-name="Grupo 1013314" transform="translate(1.621)">
          <path id="Trazado_664027" data-name="Trazado 664027" d="M24.476,178.6h-5.2a1.486,1.486,0,1,1,0-2.973h5.2a1.486,1.486,0,1,1,0,2.973Z" transform="translate(-17.787 -175.627)" fill="#faf7f7"/>
          <path id="Trazado_664028" data-name="Trazado 664028" d="M93.829,178.6H88.37a1.486,1.486,0,1,1,0-2.973h5.459a1.486,1.486,0,0,1,0,2.973Z" transform="translate(-76.613 -175.627)" fill="#faf7f7"/>
          <path id="Trazado_664029" data-name="Trazado 664029" d="M164.392,178.6h-5.2a1.486,1.486,0,1,1,0-2.973h5.2a1.486,1.486,0,1,1,0,2.973Z" transform="translate(-136.905 -175.627)" fill="#faf7f7"/>
        </g>
        <g id="Grupo_1013315" data-name="Grupo 1013315" transform="translate(28.268 2.742)">
          <path id="Trazado_664030" data-name="Trazado 664030" d="M450.849,267.935a1.484,1.484,0,0,1-.533-.1l-4.856-1.868a1.486,1.486,0,0,1,1.067-2.775l4.856,1.868a1.487,1.487,0,0,1-.534,2.874Z" transform="translate(-417.83 -252.834)" fill="#faf7f7"/>
          <path id="Trazado_664031" data-name="Trazado 664031" d="M354.547,230.9a1.483,1.483,0,0,1-.533-.1l-7.637-2.937a1.486,1.486,0,1,1,1.067-2.775l7.637,2.937a1.487,1.487,0,0,1-.534,2.874Z" transform="translate(-333.475 -220.39)" fill="#faf7f7"/>
          <path id="Trazado_664032" data-name="Trazado 664032" d="M271.392,198.915a1.483,1.483,0,0,1-.533-.1L266,196.948a1.486,1.486,0,0,1,1.067-2.775l4.856,1.868a1.487,1.487,0,0,1-.534,2.874Z" transform="translate(-265.049 -194.073)" fill="#faf7f7"/>
        </g>
        <g id="Grupo_1013316" data-name="Grupo 1013316" transform="translate(32.179)">
          <path id="Trazado_664033" data-name="Trazado 664033" d="M437.96,178.6h-5.2a1.486,1.486,0,0,1,0-2.973h5.2a1.486,1.486,0,1,1,0,2.973Z" transform="translate(-410.473 -175.627)" fill="#faf7f7"/>
          <path id="Trazado_664034" data-name="Trazado 664034" d="M367.4,178.6h-5.459a1.486,1.486,0,1,1,0-2.973H367.4a1.486,1.486,0,0,1,0,2.973Z" transform="translate(-350.181 -175.627)" fill="#faf7f7"/>
          <path id="Trazado_664035" data-name="Trazado 664035" d="M298.044,178.6h-5.2a1.486,1.486,0,1,1,0-2.973h5.2a1.486,1.486,0,0,1,0,2.973Z" transform="translate(-291.355 -175.627)" fill="#faf7f7"/>
        </g>
      </g>
      <g id="Grupo_1013318" data-name="Grupo 1013318" transform="translate(4.432 34.608)">
        <path id="Trazado_664036" data-name="Trazado 664036" d="M35,286.76c0-4.29-4.151-6.279-4.327-6.362a1.486,1.486,0,0,1,1.242-2.7,11.974,11.974,0,0,1,3.96,3.171,15.163,15.163,0,0,1,4.934-7.473,1.486,1.486,0,0,1,1.744,2.408c-.2.15-4.579,3.483-4.579,10.959Z" transform="translate(-29.815 -273.113)" fill="#6fd7a3"/>
        <path id="Trazado_664037" data-name="Trazado 664037" d="M128.438,286.76c0-4.29-4.151-6.279-4.327-6.362a1.486,1.486,0,0,1,1.242-2.7,11.974,11.974,0,0,1,3.96,3.171,15.163,15.163,0,0,1,4.934-7.473,1.486,1.486,0,0,1,1.744,2.408c-.2.15-4.579,3.483-4.579,10.959Z" transform="translate(-111.889 -273.113)" fill="#6fd7a3"/>
        <path id="Trazado_664038" data-name="Trazado 664038" d="M221.853,286.76c0-4.334-4.279-6.34-4.322-6.359a1.486,1.486,0,1,1,1.236-2.7,11.974,11.974,0,0,1,3.96,3.171,15.162,15.162,0,0,1,4.934-7.473,1.486,1.486,0,0,1,1.745,2.407c-.2.147-4.579,3.479-4.579,10.959Z" transform="translate(-193.942 -273.113)" fill="#6fd7a3"/>
        <path id="Trazado_664039" data-name="Trazado 664039" d="M315.289,286.76c0-4.334-4.279-6.34-4.322-6.359a1.486,1.486,0,1,1,1.236-2.7,11.972,11.972,0,0,1,3.96,3.171,15.163,15.163,0,0,1,4.934-7.473,1.486,1.486,0,0,1,1.744,2.408c-.2.15-4.579,3.483-4.579,10.959Z" transform="translate(-276.016 -273.113)" fill="#6fd7a3"/>
        <path id="Trazado_664040" data-name="Trazado 664040" d="M408.745,286.76c0-4.29-4.151-6.279-4.327-6.362a1.486,1.486,0,0,1,1.242-2.7,11.974,11.974,0,0,1,3.96,3.171,15.163,15.163,0,0,1,4.934-7.473A1.486,1.486,0,0,1,416.3,275.8c-.2.15-4.579,3.483-4.579,10.959Z" transform="translate(-358.109 -273.113)" fill="#6fd7a3"/>
      </g>
      <g id="Grupo_1013319" data-name="Grupo 1013319" transform="translate(8.189 42.796)">
        <path id="Trazado_664041" data-name="Trazado 664041" d="M60.282,363.549c0-4.334-4.279-6.34-4.322-6.359a1.486,1.486,0,1,1,1.236-2.7,11.973,11.973,0,0,1,3.96,3.171,15.162,15.162,0,0,1,4.934-7.473,1.486,1.486,0,0,1,1.744,2.408c-.2.15-4.579,3.483-4.579,10.959Z" transform="translate(-55.091 -349.902)" fill="#6fd7a3"/>
        <path id="Trazado_664042" data-name="Trazado 664042" d="M153.738,363.549c0-4.29-4.151-6.279-4.327-6.362a1.486,1.486,0,0,1,1.242-2.7,11.973,11.973,0,0,1,3.96,3.171,15.163,15.163,0,0,1,4.934-7.473,1.486,1.486,0,0,1,1.744,2.408c-.2.15-4.579,3.483-4.579,10.959Z" transform="translate(-134.658 -349.902)" fill="#6fd7a3"/>
        <path id="Trazado_664043" data-name="Trazado 664043" d="M247.153,363.549c0-4.334-4.279-6.34-4.322-6.36a1.486,1.486,0,1,1,1.236-2.7,11.973,11.973,0,0,1,3.96,3.171,15.162,15.162,0,0,1,4.934-7.473,1.486,1.486,0,0,1,1.745,2.407c-.2.147-4.579,3.479-4.579,10.959Z" transform="translate(-214.184 -349.902)" fill="#6fd7a3"/>
        <path id="Trazado_664044" data-name="Trazado 664044" d="M340.588,363.549c0-4.334-4.279-6.34-4.322-6.36a1.486,1.486,0,1,1,1.236-2.7,11.974,11.974,0,0,1,3.96,3.171,15.162,15.162,0,0,1,4.934-7.473,1.486,1.486,0,0,1,1.745,2.407c-.2.147-4.579,3.479-4.579,10.959Z" transform="translate(-293.73 -349.902)" fill="#6fd7a3"/>
      </g>
      <g id="Grupo_1013320" data-name="Grupo 1013320" transform="translate(14.692 55.587)">
        <path id="Trazado_664045" data-name="Trazado 664045" d="M136.853,438.637c-.012.009-.037.028-3.548,5.111q-1.358-.629-2.655-1.36a14.711,14.711,0,0,1,4.458-6.157,1.486,1.486,0,0,1,1.745,2.407Z" transform="translate(-130.65 -435.95)" fill="#6fd7a3"/>
        <path id="Trazado_664046" data-name="Trazado 664046" d="M192.832,438.639c-.131.1-2.019,1.534-4.412,8.5a37.839,37.839,0,0,1-3.88-.5,8.616,8.616,0,0,0-3.582-3.4,1.487,1.487,0,0,1,1.237-2.7,11.963,11.963,0,0,1,3.96,3.169,15.152,15.152,0,0,1,4.934-7.473,1.487,1.487,0,0,1,1.744,2.408Z" transform="translate(-172.741 -435.95)" fill="#6fd7a3"/>
        <path id="Trazado_664047" data-name="Trazado 664047" d="M286.287,438.639c-.08.059-.81.614-4.115,6.93a37.45,37.45,0,0,1-4.193,1.035,8.55,8.55,0,0,0-3.572-3.368,1.487,1.487,0,0,1,1.243-2.7,11.965,11.965,0,0,1,3.959,3.169,15.174,15.174,0,0,1,4.934-7.473,1.487,1.487,0,0,1,1.745,2.408Z" transform="translate(-252.306 -435.95)" fill="#6fd7a3"/>
      </g>
    </g>
  </g>
</svg>
